<svg xmlns="http://www.w3.org/2000/svg" xmlns:xlink="http://www.w3.org/1999/xlink" id="Layer_1" x="0px" y="0px" viewBox="0 0 1930 1090" style="enable-background:new 0 0 1930 1090;" xml:space="preserve"><style type="text/css">	.st0{fill:none;}	.st1{fill:#C4C4C4;stroke:#C4C4C4;stroke-width:0.5;stroke-miterlimit:10;}	.st2{fill:#222121;stroke:#632135;stroke-width:10;stroke-miterlimit:10;}	.st3{opacity:0.15;}	.st4{fill:url(#SVGID_1_);}	.st5{opacity:0.75;}	.st6{opacity:0.55;enable-background:new    ;}	.st7{fill:#632135;}	.st8{opacity:0.6;enable-background:new    ;}	.st9{opacity:0.5;enable-background:new    ;}	.st10{fill:#73243C;}	.st11{fill:#C4C4C4;}	.st12{fill:#CBCBCB;}</style><pattern y="1090" width="55" height="56.3" patternUnits="userSpaceOnUse" id="SVGID_0000010251957853417130534" viewBox="0 -56.3 55 56.3" style="overflow:visible;">	<g>		<rect y="-56.3" class="st0" width="55" height="56.3"></rect>		<g>			<rect y="-56.3" class="st0" width="55" height="56.3"></rect>			<g>				<rect y="-56.3" class="st0" width="55" height="56.3"></rect>				<g>					<rect y="-56.3" class="st0" width="55" height="56.3"></rect>					<g>						<rect y="-56.3" class="st0" width="55" height="56.3"></rect>						<g>							<rect y="-56.3" class="st0" width="55" height="56.3"></rect>							<g>								<rect y="-56.3" class="st0" width="55" height="56.3"></rect>								<ellipse class="st1" cx="27.5" cy="-28.1" rx="2.2" ry="2.9"></ellipse>							</g>						</g>					</g>				</g>			</g>		</g>	</g></pattern><rect id="Background_00000047039387372808353670000006548131733792407448_" x="4.4" y="3.9" class="st2" width="1920" height="1080"></rect><g id="Dots_00000060005410458720728200000000456188911456130236_" class="st3">			<pattern id="SVGID_1_" xlink:href="#SVGID_0000010251957853417130534" patternTransform="matrix(1 0 0 1 -2967.5 52224.3242)" class="st3">	</pattern>	<rect x="5.4" y="4.9" class="st4" width="1920" height="1080"></rect></g><g id="Circles_00000024701024000768462860000002508029465671319199_" class="st5">	<g class="st6">		<path class="st7" d="M1099.9,408.4c0-8.3,6.7-15,15-15l0,0c8.3,0,15,6.7,15,15l0,0c0,8.3-6.7,15-15,15l0,0   C1106.6,423.4,1099.9,416.7,1099.9,408.4z M1064.9,408.4c0-8.3,6.7-15,15-15l0,0c8.3,0,15,6.7,15,15l0,0c0,8.3-6.7,15-15,15l0,0   C1071.6,423.4,1064.9,416.7,1064.9,408.4z M1029.9,408.4c0-8.3,6.7-15,15-15l0,0c8.3,0,15,6.7,15,15l0,0c0,8.3-6.7,15-15,15l0,0   C1036.6,423.4,1029.9,416.7,1029.9,408.4z M994.9,408.4c0-8.3,6.7-15,15-15l0,0c8.3,0,15,6.7,15,15l0,0c0,8.3-6.7,15-15,15l0,0   C1001.6,423.4,994.9,416.7,994.9,408.4z M959.9,408.4c0-8.3,6.7-15,15-15l0,0c8.3,0,15,6.7,15,15l0,0c0,8.3-6.7,15-15,15l0,0   C966.6,423.4,959.9,416.7,959.9,408.4z M924.9,408.4c0-8.3,6.7-15,15-15l0,0c8.3,0,15,6.7,15,15l0,0c0,8.3-6.7,15-15,15l0,0   C931.6,423.4,924.9,416.7,924.9,408.4z M889.9,408.4c0-8.3,6.7-15,15-15l0,0c8.3,0,15,6.7,15,15l0,0c0,8.3-6.7,15-15,15l0,0   C896.6,423.4,889.9,416.7,889.9,408.4z M854.9,408.4c0-8.3,6.7-15,15-15l0,0c8.3,0,15,6.7,15,15l0,0c0,8.3-6.7,15-15,15l0,0   C861.6,423.4,854.9,416.7,854.9,408.4z M819.9,408.4c0-8.3,6.7-15,15-15l0,0c8.3,0,15,6.7,15,15l0,0c0,8.3-6.7,15-15,15l0,0   C826.6,423.4,819.9,416.7,819.9,408.4z M784.9,408.4c0-8.3,6.7-15,15-15l0,0c8.3,0,15,6.7,15,15l0,0c0,8.3-6.7,15-15,15l0,0   C791.6,423.4,784.9,416.7,784.9,408.4z M749.9,408.4c0-8.3,6.7-15,15-15l0,0c8.3,0,15,6.7,15,15l0,0c0,8.3-6.7,15-15,15l0,0   C756.6,423.4,749.9,416.7,749.9,408.4z M714.9,408.4c0-8.3,6.7-15,15-15l0,0c8.3,0,15,6.7,15,15l0,0c0,8.3-6.7,15-15,15l0,0   C721.6,423.4,714.9,416.7,714.9,408.4z"></path>	</g>	<g class="st6">		<path class="st7" d="M1156.4,464.4c-8.3,0-15-6.7-15-15l0,0c0-8.3,6.7-15,15-15l0,0c8.3,0,15,6.7,15,15l0,0   C1171.4,457.7,1164.7,464.4,1156.4,464.4L1156.4,464.4L1156.4,464.4z M1121.4,464.4c-8.3,0-15-6.7-15-15l0,0c0-8.3,6.7-15,15-15   l0,0c8.3,0,15,6.7,15,15l0,0C1136.4,457.7,1129.7,464.4,1121.4,464.4L1121.4,464.4L1121.4,464.4z M1086.4,464.3   c-8.3,0-15-6.7-15-15l0,0c0-8.3,6.7-15,15-15l0,0c8.3,0,15,6.7,15,15l0,0C1101.4,457.6,1094.7,464.3,1086.4,464.3L1086.4,464.3   L1086.4,464.3z M1051.4,464.3c-8.3,0-15-6.7-15-15l0,0c0-8.3,6.7-15,15-15l0,0c8.3,0,15,6.7,15,15l0,0   C1066.4,457.6,1059.7,464.3,1051.4,464.3L1051.4,464.3L1051.4,464.3z M1016.4,464.3c-8.3,0-15-6.7-15-15l0,0c0-8.3,6.7-15,15-15   l0,0c8.3,0,15,6.7,15,15l0,0C1031.4,457.6,1024.7,464.3,1016.4,464.3L1016.4,464.3L1016.4,464.3z M981.4,464.3   c-8.3,0-15-6.7-15-15l0,0c0-8.3,6.7-15,15-15l0,0c8.3,0,15,6.7,15,15l0,0C996.4,457.6,989.7,464.3,981.4,464.3L981.4,464.3   L981.4,464.3z M946.4,464.2c-8.3,0-15-6.7-15-15l0,0c0-8.3,6.7-15,15-15l0,0c8.3,0,15,6.7,15,15l0,0   C961.4,457.5,954.7,464.2,946.4,464.2L946.4,464.2L946.4,464.2z M911.4,464.2c-8.3,0-15-6.7-15-15l0,0c0-8.3,6.7-15,15-15l0,0   c8.3,0,15,6.7,15,15l0,0C926.4,457.5,919.7,464.2,911.4,464.2L911.4,464.2L911.4,464.2z M876.4,464.2c-8.3,0-15-6.7-15-15l0,0   c0-8.3,6.7-15,15-15l0,0c8.3,0,15,6.7,15,15l0,0C891.4,457.5,884.7,464.2,876.4,464.2L876.4,464.2L876.4,464.2z M841.4,464.2   c-8.3,0-15-6.7-15-15l0,0c0-8.3,6.7-15,15-15l0,0c8.3,0,15,6.7,15,15l0,0C856.4,457.5,849.7,464.2,841.4,464.2L841.4,464.2   L841.4,464.2z M806.4,464.1c-8.3,0-15-6.7-15-15l0,0c0-8.3,6.7-15,15-15l0,0c8.3,0,15,6.7,15,15l0,0   C821.4,457.4,814.7,464.1,806.4,464.1L806.4,464.1L806.4,464.1z M771.4,464.1c-8.3,0-15-6.7-15-15l0,0c0-8.3,6.7-15,15-15l0,0   c8.3,0,15,6.7,15,15l0,0C786.4,457.4,779.7,464.1,771.4,464.1L771.4,464.1L771.4,464.1z M736.4,464.1c-8.3,0-15-6.7-15-15l0,0   c0-8.3,6.7-15,15-15l0,0c8.3,0,15,6.7,15,15l0,0C751.4,457.4,744.7,464.1,736.4,464.1L736.4,464.1L736.4,464.1z M701.4,464.1   c-8.3,0-15-6.7-15-15l0,0c0-8.3,6.7-15,15-15l0,0c8.3,0,15,6.7,15,15l0,0C716.4,457.4,709.7,464.1,701.4,464.1L701.4,464.1   L701.4,464.1z"></path>	</g>	<g class="st8">		<path class="st7" d="M1145.9,493.4c0-8.3,6.7-15,15-15l0,0c8.3,0,15,6.7,15,15l0,0c0,8.3-6.7,15-15,15l0,0   C1152.6,508.4,1145.9,501.7,1145.9,493.4z M1100.9,493.4c0-8.3,6.7-15,15-15l0,0c8.3,0,15,6.7,15,15l0,0c0,8.3-6.7,15-15,15l0,0   C1107.6,508.4,1100.9,501.7,1100.9,493.4z M1055.9,493.4c0-8.3,6.7-15,15-15l0,0c8.3,0,15,6.7,15,15l0,0c0,8.3-6.7,15-15,15l0,0   C1062.6,508.4,1055.9,501.7,1055.9,493.4z M1010.9,493.4c0-8.3,6.7-15,15-15l0,0c8.3,0,15,6.7,15,15l0,0c0,8.3-6.7,15-15,15l0,0   C1017.6,508.4,1010.9,501.7,1010.9,493.4z M965.9,493.4c0-8.3,6.7-15,15-15l0,0c8.3,0,15,6.7,15,15l0,0c0,8.3-6.7,15-15,15l0,0   C972.6,508.4,965.9,501.7,965.9,493.4z M920.9,493.4c0-8.3,6.7-15,15-15l0,0c8.3,0,15,6.7,15,15l0,0c0,8.3-6.7,15-15,15l0,0   C927.6,508.4,920.9,501.7,920.9,493.4z M875.9,493.4c0-8.3,6.7-15,15-15l0,0c8.3,0,15,6.7,15,15l0,0c0,8.3-6.7,15-15,15l0,0   C882.6,508.4,875.9,501.7,875.9,493.4z M830.9,493.4c0-8.3,6.7-15,15-15l0,0c8.3,0,15,6.7,15,15l0,0c0,8.3-6.7,15-15,15l0,0   C837.6,508.4,830.9,501.7,830.9,493.4z M785.9,493.4c0-8.3,6.7-15,15-15l0,0c8.3,0,15,6.7,15,15l0,0c0,8.3-6.7,15-15,15l0,0   C792.6,508.4,785.9,501.7,785.9,493.4z M740.9,493.4c0-8.3,6.7-15,15-15l0,0c8.3,0,15,6.7,15,15l0,0c0,8.3-6.7,15-15,15l0,0   C747.6,508.4,740.9,501.7,740.9,493.4z M695.9,493.4c0-8.3,6.7-15,15-15l0,0c8.3,0,15,6.7,15,15l0,0c0,8.3-6.7,15-15,15l0,0   C702.6,508.4,695.9,501.7,695.9,493.4z M650.9,493.4c0-8.3,6.7-15,15-15l0,0c8.3,0,15,6.7,15,15l0,0c0,8.3-6.7,15-15,15l0,0   C657.6,508.4,650.9,501.7,650.9,493.4z"></path>	</g>	<g class="st8">		<path class="st7" d="M721.9,537.4c0-8.3,6.7-15,15-15l0,0c8.3,0,15,6.7,15,15l0,0c0,8.3-6.7,15-15,15l0,0   C728.6,552.4,721.9,545.7,721.9,537.4z M766.9,537.4c0-8.3,6.7-15,15-15l0,0c8.3,0,15,6.7,15,15l0,0c0,8.3-6.7,15-15,15l0,0   C773.6,552.4,766.9,545.7,766.9,537.4z M811.9,537.3c0-8.3,6.7-15,15-15l0,0c8.3,0,15,6.7,15,15l0,0c0,8.3-6.7,15-15,15l0,0   C818.6,552.3,811.9,545.6,811.9,537.3z M856.9,537.3c0-8.3,6.7-15,15-15l0,0c8.3,0,15,6.7,15,15l0,0c0,8.3-6.7,15-15,15l0,0   C863.6,552.3,856.9,545.6,856.9,537.3z M901.9,537.3c0-8.3,6.7-15,15-15l0,0c8.3,0,15,6.7,15,15l0,0c0,8.3-6.7,15-15,15l0,0   C908.6,552.3,901.9,545.5,901.9,537.3z M946.9,537.2c0-8.3,6.7-15,15-15l0,0c8.3,0,15,6.7,15,15l0,0c0,8.3-6.7,15-15,15l0,0   C953.6,552.2,946.9,545.5,946.9,537.2z M991.9,537.2c0-8.3,6.7-15,15-15l0,0c8.3,0,15,6.7,15,15l0,0c0,8.3-6.7,15-15,15l0,0   C998.6,552.2,991.9,545.5,991.9,537.2z M1036.9,537.1c0-8.3,6.7-15,15-15l0,0c8.3,0,15,6.7,15,15l0,0c0,8.3-6.7,15-15,15l0,0   C1043.6,552.1,1036.9,545.4,1036.9,537.1z M1081.9,537.1c0-8.3,6.7-15,15-15l0,0c8.3,0,15,6.7,15,15l0,0c0,8.3-6.7,15-15,15l0,0   C1088.6,552.1,1081.9,545.4,1081.9,537.1z M1126.9,537.1c0-8.3,6.7-15,15-15l0,0c8.3,0,15,6.7,15,15l0,0c0,8.3-6.7,15-15,15l0,0   C1133.6,552.1,1126.9,545.4,1126.9,537.1z M1171.9,537c0-8.3,6.7-15,15-15l0,0c8.3,0,15,6.7,15,15l0,0c0,8.3-6.7,15-15,15l0,0   C1178.6,552,1171.9,545.3,1171.9,537z M1216.9,537c0-8.3,6.7-15,15-15l0,0c8.3,0,15,6.7,15,15l0,0c0,8.3-6.7,15-15,15l0,0   C1223.6,552,1216.9,545.3,1216.9,537z"></path>	</g>	<g class="st8">		<path class="st7" d="M725.9,581.4c0-8.3,6.7-15,15-15l0,0c8.3,0,15,6.7,15,15l0,0c0,8.3-6.7,15-15,15l0,0   C732.6,596.4,725.9,589.7,725.9,581.4z M770.9,581.4c0-8.3,6.7-15,15-15l0,0c8.3,0,15,6.7,15,15l0,0c0,8.3-6.7,15-15,15l0,0   C777.6,596.4,770.9,589.7,770.9,581.4z M815.9,581.3c0-8.3,6.7-15,15-15l0,0c8.3,0,15,6.7,15,15l0,0c0,8.3-6.7,15-15,15l0,0   C822.6,596.3,815.9,589.6,815.9,581.3z M860.9,581.3c0-8.3,6.7-15,15-15l0,0c8.3,0,15,6.7,15,15l0,0c0,8.3-6.7,15-15,15l0,0   C867.6,596.3,860.9,589.6,860.9,581.3z M905.9,581.3c0-8.3,6.7-15,15-15l0,0c8.3,0,15,6.7,15,15l0,0c0,8.3-6.7,15-15,15l0,0   C912.6,596.2,905.9,589.5,905.9,581.3z M950.9,581.2c0-8.3,6.7-15,15-15l0,0c8.3,0,15,6.7,15,15l0,0c0,8.3-6.7,15-15,15l0,0   C957.6,596.2,950.9,589.5,950.9,581.2z M995.9,581.2c0-8.3,6.7-15,15-15l0,0c8.3,0,15,6.7,15,15l0,0c0,8.3-6.7,15-15,15l0,0   C1002.6,596.2,995.9,589.5,995.9,581.2z M1040.9,581.1c0-8.3,6.7-15,15-15l0,0c8.3,0,15,6.7,15,15l0,0c0,8.3-6.7,15-15,15l0,0   C1047.6,596.1,1040.9,589.4,1040.9,581.1z M1085.9,581.1c0-8.3,6.7-15,15-15l0,0c8.3,0,15,6.7,15,15l0,0c0,8.3-6.7,15-15,15l0,0   C1092.6,596.1,1085.9,589.4,1085.9,581.1z M1130.9,581.1c0-8.3,6.7-15,15-15l0,0c8.3,0,15,6.7,15,15l0,0c0,8.3-6.7,15-15,15l0,0   C1137.6,596.1,1130.9,589.4,1130.9,581.1z M1175.9,581c0-8.3,6.7-15,15-15l0,0c8.3,0,15,6.7,15,15l0,0c0,8.3-6.7,15-15,15l0,0   C1182.6,596,1175.9,589.3,1175.9,581z M1220.9,581c0-8.3,6.7-15,15-15l0,0c8.3,0,15,6.7,15,15l0,0c0,8.3-6.7,15-15,15l0,0   C1227.6,596,1220.9,589.3,1220.9,581z"></path>	</g>	<g class="st8">		<path class="st7" d="M758.9,619.4c0-8.3,6.7-15,15-15l0,0c8.3,0,15,6.7,15,15l0,0c0,8.3-6.7,15-15,15l0,0   C765.6,634.4,758.9,627.7,758.9,619.4z M798.9,619.4c0-8.3,6.7-15,15-15l0,0c8.3,0,15,6.7,15,15l0,0c0,8.3-6.7,15-15,15l0,0   C805.6,634.4,798.9,627.7,798.9,619.4z M838.9,619.3c0-8.3,6.7-15,15-15l0,0c8.3,0,15,6.7,15,15l0,0c0,8.3-6.7,15-15,15l0,0   C845.6,634.3,838.9,627.6,838.9,619.3z M878.9,619.3c0-8.3,6.7-15,15-15l0,0c8.3,0,15,6.7,15,15l0,0c0,8.3-6.7,15-15,15l0,0   C885.6,634.3,878.9,627.6,878.9,619.3z M918.9,619.3c0-8.3,6.7-15,15-15l0,0c8.3,0,15,6.7,15,15l0,0c0,8.3-6.7,15-15,15l0,0   C925.6,634.3,918.9,627.5,918.9,619.3z M958.9,619.2c0-8.3,6.7-15,15-15l0,0c8.3,0,15,6.7,15,15l0,0c0,8.3-6.7,15-15,15l0,0   C965.6,634.2,958.9,627.5,958.9,619.2z M998.9,619.2c0-8.3,6.7-15,15-15l0,0c8.3,0,15,6.7,15,15l0,0c0,8.3-6.7,15-15,15l0,0   C1005.6,634.2,998.9,627.5,998.9,619.2z M1038.9,619.2c0-8.3,6.7-15,15-15l0,0c8.3,0,15,6.7,15,15l0,0c0,8.3-6.7,15-15,15l0,0   C1045.6,634.1,1038.9,627.4,1038.9,619.2z M1078.9,619.1c0-8.3,6.7-15,15-15l0,0c8.3,0,15,6.7,15,15l0,0c0,8.3-6.7,15-15,15l0,0   C1085.6,634.1,1078.9,627.4,1078.9,619.1z M1118.9,619.1c0-8.3,6.7-15,15-15l0,0c8.3,0,15,6.7,15,15l0,0c0,8.3-6.7,15-15,15l0,0   C1125.6,634.1,1118.9,627.4,1118.9,619.1z M1158.9,619c0-8.3,6.7-15,15-15l0,0c8.3,0,15,6.7,15,15l0,0c0,8.3-6.7,15-15,15l0,0   C1165.6,634,1158.9,627.3,1158.9,619z M1198.9,619c0-8.3,6.7-15,15-15l0,0c8.3,0,15,6.7,15,15l0,0c0,8.3-6.7,15-15,15l0,0   C1205.6,634,1198.9,627.3,1198.9,619z M1238.9,619c0-8.3,6.7-15,15-15l0,0c8.3,0,15,6.7,15,15l0,0c0,8.3-6.7,15-15,15l0,0   C1245.6,634,1238.9,627.3,1238.9,619z"></path>	</g>	<g class="st9">		<path class="st7" d="M1173.9,657.4c0-8.3,6.7-15,15-15l0,0c8.3,0,15,6.7,15,15l0,0c0,8.3-6.7,15-15,15l0,0   C1180.6,672.4,1173.9,665.7,1173.9,657.4z M1138.9,657.4c0-8.3,6.7-15,15-15l0,0c8.3,0,15,6.7,15,15l0,0c0,8.3-6.7,15-15,15l0,0   C1145.6,672.4,1138.9,665.7,1138.9,657.4z M1103.9,657.4c0-8.3,6.7-15,15-15l0,0c8.3,0,15,6.7,15,15l0,0c0,8.3-6.7,15-15,15l0,0   C1110.6,672.4,1103.9,665.7,1103.9,657.4z M1068.9,657.4c0-8.3,6.7-15,15-15l0,0c8.3,0,15,6.7,15,15l0,0c0,8.3-6.7,15-15,15l0,0   C1075.6,672.4,1068.9,665.7,1068.9,657.4z M1033.9,657.4c0-8.3,6.7-15,15-15l0,0c8.3,0,15,6.7,15,15l0,0c0,8.3-6.7,15-15,15l0,0   C1040.6,672.4,1033.9,665.7,1033.9,657.4z M998.9,657.4c0-8.3,6.7-15,15-15l0,0c8.3,0,15,6.7,15,15l0,0c0,8.3-6.7,15-15,15l0,0   C1005.6,672.4,998.9,665.7,998.9,657.4z M963.9,657.4c0-8.3,6.7-15,15-15l0,0c8.3,0,15,6.7,15,15l0,0c0,8.3-6.7,15-15,15l0,0   C970.6,672.4,963.9,665.7,963.9,657.4z M928.9,657.4c0-8.3,6.7-15,15-15l0,0c8.3,0,15,6.7,15,15l0,0c0,8.3-6.7,15-15,15l0,0   C935.6,672.4,928.9,665.7,928.9,657.4z M893.9,657.4c0-8.3,6.7-15,15-15l0,0c8.3,0,15,6.7,15,15l0,0c0,8.3-6.7,15-15,15l0,0   C900.6,672.4,893.9,665.7,893.9,657.4z M858.9,657.4c0-8.3,6.7-15,15-15l0,0c8.3,0,15,6.7,15,15l0,0c0,8.3-6.7,15-15,15l0,0   C865.6,672.4,858.9,665.7,858.9,657.4z M823.9,657.4c0-8.3,6.7-15,15-15l0,0c8.3,0,15,6.7,15,15l0,0c0,8.3-6.7,15-15,15l0,0   C830.6,672.4,823.9,665.7,823.9,657.4z M788.9,657.4c0-8.3,6.7-15,15-15l0,0c8.3,0,15,6.7,15,15l0,0c0,8.3-6.7,15-15,15l0,0   C795.6,672.4,788.9,665.7,788.9,657.4z"></path>	</g>	<g class="st9">		<path class="st7" d="M1222.8,421.2c-6.9,0-12.5-5.7-12.4-12.6l0,0c0-6.9,5.7-12.5,12.6-12.4l0,0c6.9,0,12.5,5.7,12.4,12.6l0,0   C1235.4,415.7,1229.8,421.2,1222.8,421.2L1222.8,421.2C1222.9,421.2,1222.9,421.2,1222.8,421.2z M1187.8,421.1   c-6.9,0-12.5-5.7-12.4-12.6l0,0c0-6.9,5.7-12.5,12.6-12.4l0,0c6.9,0,12.5,5.7,12.4,12.6l0,0   C1200.4,415.5,1194.8,421.1,1187.8,421.1L1187.8,421.1C1187.9,421.1,1187.9,421.1,1187.8,421.1z M1152.8,420.9   c-6.9,0-12.5-5.7-12.4-12.6l0,0c0-6.9,5.7-12.5,12.6-12.4l0,0c6.9,0,12.5,5.7,12.4,12.6l0,0   C1165.4,415.3,1159.8,420.9,1152.8,420.9L1152.8,420.9C1152.9,420.9,1152.9,420.9,1152.8,420.9z"></path>	</g>	<g class="st9">		<path class="st7" d="M1331.8,462.4c-6.8-0.1-12.4-5.6-12.4-12.4l0,0c0,0,0-0.1,0-0.2l0,0c0-6.9,5.7-12.5,12.6-12.4l0,0   c6.8,0.1,12.4,5.6,12.4,12.4l0,0c0,0.1,0,0.1,0,0.2l0,0C1344.3,456.9,1338.8,462.4,1331.8,462.4L1331.8,462.4   C1331.9,462.4,1331.9,462.4,1331.8,462.4z M1296.8,462.1c-6.8-0.1-12.4-5.6-12.4-12.4l0,0c0-0.1,0-0.1,0-0.2l0,0   c0-6.9,5.7-12.5,12.6-12.4l0,0c6.9,0.1,12.4,5.6,12.4,12.4l0,0c0,0,0,0.1,0,0.2l0,0C1309.3,456.6,1303.8,462.1,1296.8,462.1   L1296.8,462.1C1296.9,462.1,1296.9,462.1,1296.8,462.1z M1261.8,461.8c-6.8-0.1-12.4-5.6-12.4-12.4l0,0c0,0,0-0.1,0-0.2l0,0   c0.1-6.9,5.7-12.4,12.6-12.4l0,0c6.9,0.1,12.4,5.6,12.4,12.4l0,0c0,0.1,0,0.1,0,0.2l0,0C1274.3,456.3,1268.8,461.8,1261.8,461.8   L1261.8,461.8C1261.9,461.8,1261.9,461.8,1261.8,461.8z M1226.8,461.5c-6.8-0.1-12.4-5.6-12.4-12.4l0,0c0-0.1,0-0.1,0-0.2l0,0   c0-6.9,5.7-12.5,12.6-12.4l0,0c6.9,0,12.4,5.6,12.4,12.4l0,0c0,0,0,0.1,0,0.2l0,0C1239.3,456,1233.8,461.5,1226.8,461.5   L1226.8,461.5C1226.9,461.5,1226.9,461.5,1226.8,461.5z M1191.8,461.3c-6.8,0-12.4-5.6-12.4-12.4l0,0c0,0,0-0.1,0-0.2l0,0   c0.1-6.9,5.7-12.5,12.6-12.4l0,0c6.9,0.1,12.4,5.6,12.4,12.4l0,0c0,0,0,0.1,0,0.2l0,0C1204.3,455.8,1198.8,461.3,1191.8,461.3   L1191.8,461.3C1191.9,461.3,1191.9,461.3,1191.8,461.3z"></path>	</g>	<g class="st9">		<path class="st7" d="M1366.9,506.4c-6.9-0.1-12.4-5.6-12.4-12.4l0,0c0-0.1,0-0.1,0-0.2l0,0c0.1-6.9,5.7-12.5,12.6-12.4l0,0   c6.8,0.1,12.4,5.6,12.4,12.4l0,0c0,0.1,0,0.1,0,0.2l0,0C1379.4,500.9,1373.9,506.4,1366.9,506.4L1366.9,506.4L1366.9,506.4z    M1331.9,506.1c-6.9,0-12.4-5.6-12.4-12.4l0,0c0,0,0-0.1,0-0.2l0,0c0.1-6.9,5.7-12.5,12.6-12.4l0,0c6.8,0.1,12.4,5.6,12.4,12.4   l0,0c0,0.1,0,0.1,0,0.2l0,0C1344.5,500.6,1338.9,506.1,1331.9,506.1L1331.9,506.1L1331.9,506.1z M1296.9,505.8   c-6.9,0-12.4-5.6-12.4-12.4l0,0c0,0,0-0.1,0-0.2l0,0c0.1-6.9,5.7-12.5,12.6-12.4l0,0c6.8,0.1,12.4,5.6,12.4,12.4l0,0   c0,0.1,0,0.1,0,0.2l0,0C1309.4,500.3,1303.8,505.8,1296.9,505.8L1296.9,505.8L1296.9,505.8z M1261.9,505.5   c-6.8-0.1-12.4-5.6-12.4-12.5l0,0c0,0,0-0.1,0-0.2l0,0c0.1-6.9,5.7-12.5,12.6-12.4l0,0c6.8,0,12.4,5.6,12.4,12.4l0,0   c0,0,0,0.1,0,0.2l0,0C1274.4,500,1268.8,505.5,1261.9,505.5L1261.9,505.5L1261.9,505.5z M1226.9,505.2   c-6.8-0.1-12.4-5.6-12.4-12.4l0,0c0-0.1,0-0.1,0-0.2l0,0c0.1-6.9,5.7-12.5,12.6-12.4l0,0c6.8,0.1,12.4,5.6,12.4,12.4l0,0   c0,0,0,0.1,0,0.2l0,0C1239.4,499.7,1233.8,505.2,1226.9,505.2L1226.9,505.2L1226.9,505.2z M1191.9,504.9   c-6.8-0.1-12.4-5.6-12.4-12.4l0,0c0-0.1,0-0.1,0-0.2l0,0c0.1-6.9,5.7-12.5,12.6-12.4l0,0c6.8,0.1,12.4,5.6,12.4,12.4l0,0   c0,0.1,0,0.1,0,0.2l0,0C1204.4,499.4,1198.8,504.9,1191.9,504.9L1191.9,504.9L1191.9,504.9z"></path>	</g>	<g class="st9">		<path class="st7" d="M1442.4,550.2c-6.8-0.1-12.4-5.6-12.4-12.4l0,0c0-0.1,0-0.1,0-0.2l0,0c0.1-6.9,5.7-12.5,12.6-12.4l0,0   c6.9,0.1,12.4,5.6,12.4,12.4l0,0c0,0,0,0.1,0,0.2l0,0C1455,544.7,1449.4,550.2,1442.4,550.2L1442.4,550.2L1442.4,550.2z    M1407.4,549.9c-6.8-0.1-12.4-5.6-12.4-12.4l0,0c0,0,0-0.1,0-0.2l0,0c0-6.9,5.7-12.5,12.6-12.4l0,0c6.9,0.1,12.4,5.6,12.4,12.4   l0,0c0,0.1,0,0.1,0,0.2l0,0C1419.9,544.4,1414.3,549.9,1407.4,549.9L1407.4,549.9L1407.4,549.9z M1372.4,549.7   c-6.8-0.1-12.4-5.6-12.4-12.4l0,0c0-0.1,0-0.1,0-0.2l0,0c0-6.9,5.7-12.5,12.6-12.4l0,0c6.9,0.1,12.4,5.6,12.4,12.4l0,0   c0,0.1,0,0.1,0,0.2l0,0C1384.9,544.2,1379.3,549.7,1372.4,549.7L1372.4,549.7L1372.4,549.7z M1337.4,549.4   c-6.8-0.1-12.4-5.6-12.4-12.4l0,0c0-0.1,0-0.1,0-0.2l0,0c0.1-6.9,5.7-12.5,12.6-12.4l0,0c6.9,0.1,12.4,5.6,12.4,12.4l0,0   c0,0.1,0,0.1,0,0.2l0,0C1349.9,543.9,1344.4,549.4,1337.4,549.4L1337.4,549.4L1337.4,549.4z M1302.4,549.1   c-6.8-0.1-12.4-5.6-12.4-12.4l0,0c0-0.1,0-0.1,0-0.2l0,0c0.1-6.9,5.7-12.5,12.6-12.4l0,0c6.9,0.1,12.4,5.6,12.4,12.4l0,0   c0,0.1,0,0.1,0,0.2l0,0C1314.9,543.6,1309.4,549.1,1302.4,549.1L1302.4,549.1L1302.4,549.1z M1267.4,548.8   c-6.8-0.1-12.4-5.6-12.4-12.4l0,0c0,0,0-0.1,0-0.2l0,0c0.1-6.9,5.7-12.5,12.6-12.4l0,0c6.9,0.1,12.4,5.6,12.4,12.4l0,0   c0,0.1,0,0.1,0,0.2l0,0C1279.9,543.3,1274.4,548.8,1267.4,548.8L1267.4,548.8L1267.4,548.8z"></path>	</g>	<g class="st9">		<path class="st7" d="M1415.3,594.4c-6.8-0.1-12.3-5.7-12.4-12.5l0,0c0-0.1,0-0.1,0-0.2l0,0c0.1-6.9,5.7-12.4,12.6-12.4l0,0   c6.8,0.1,12.3,5.7,12.4,12.5l0,0c0,0,0,0.1,0,0.2l0,0C1427.8,588.9,1422.2,594.4,1415.3,594.4L1415.3,594.4   C1415.4,594.4,1415.4,594.4,1415.3,594.4z M1380.3,594c-6.8-0.1-12.3-5.6-12.4-12.5l0,0c0,0,0-0.1,0-0.2l0,0   c0.1-6.9,5.7-12.4,12.6-12.4l0,0c6.8,0.1,12.3,5.7,12.4,12.5l0,0c0,0.1,0,0.1,0,0.2l0,0C1392.8,588.5,1387.2,594,1380.3,594   L1380.3,594C1380.4,594,1380.4,594,1380.3,594z M1345.3,593.6c-6.8-0.1-12.3-5.6-12.3-12.5l0,0c0-0.1,0-0.1,0-0.2l0,0   c0.1-6.9,5.7-12.4,12.6-12.4l0,0c6.8,0.1,12.3,5.7,12.4,12.5l0,0c0,0,0,0.1,0,0.2l0,0c-0.1,6.9-5.7,12.4-12.5,12.4l0,0   C1345.4,593.6,1345.4,593.6,1345.3,593.6z M1310.3,593.2c-6.8-0.1-12.3-5.6-12.4-12.5l0,0c0-0.1,0-0.1,0-0.2l0,0   c0.1-6.9,5.7-12.4,12.6-12.4l0,0c6.8,0.1,12.3,5.6,12.4,12.5l0,0c0,0.1,0,0.1,0,0.2l0,0C1322.8,587.7,1317.2,593.2,1310.3,593.2   L1310.3,593.2C1310.4,593.2,1310.4,593.2,1310.3,593.2z M1275.3,592.8c-6.8-0.1-12.3-5.6-12.4-12.5l0,0c0-0.1,0-0.1,0-0.2l0,0   c0.1-6.9,5.7-12.4,12.6-12.4l0,0c6.8,0.1,12.3,5.7,12.4,12.5l0,0c0,0,0,0.1,0,0.2l0,0C1287.8,587.3,1282.2,592.8,1275.3,592.8   L1275.3,592.8C1275.4,592.8,1275.4,592.8,1275.3,592.8z"></path>	</g>	<g class="st9">		<path class="st7" d="M1396,632.3c-6.8-0.1-12.3-5.7-12.3-12.5l0,0c0,0,0-0.1,0-0.2l0,0c0.1-6.9,5.8-12.4,12.7-12.3l0,0   c6.8,0.1,12.3,5.7,12.3,12.5l0,0c0,0,0,0.1,0,0.2l0,0c-0.1,6.8-5.7,12.3-12.5,12.3l0,0C1396.2,632.3,1396.1,632.3,1396,632.3z    M1361,631.8c-6.8-0.1-12.3-5.7-12.3-12.5l0,0c0,0,0-0.1,0-0.2l0,0c0.1-6.9,5.8-12.4,12.7-12.3l0,0c6.8,0.1,12.3,5.7,12.3,12.5   l0,0c0,0,0,0.1,0,0.2l0,0c-0.1,6.8-5.7,12.3-12.5,12.3l0,0C1361.2,631.8,1361.1,631.8,1361,631.8z M1326,631.2   c-6.8-0.1-12.3-5.7-12.3-12.5l0,0c0,0,0-0.1,0-0.2l0,0c0.1-6.9,5.8-12.4,12.7-12.3l0,0c6.9,0.1,12.3,5.7,12.3,12.5l0,0   c0,0.1,0,0.1,0,0.2l0,0c-0.1,6.8-5.7,12.3-12.5,12.3l0,0C1326.2,631.2,1326.1,631.2,1326,631.2z M1291,630.7   c-6.8-0.1-12.3-5.7-12.3-12.5l0,0c0,0,0-0.1,0-0.2l0,0c0.1-6.9,5.8-12.4,12.7-12.3l0,0c6.9,0.1,12.3,5.7,12.3,12.5l0,0   c0,0,0,0.1,0,0.2l0,0c-0.1,6.8-5.7,12.3-12.5,12.3l0,0C1291.2,630.7,1291.1,630.7,1291,630.7z"></path>	</g>	<g class="st9">		<path class="st7" d="M768.5,670c-6.8-0.1-12.3-5.7-12.3-12.5l0,0c0-0.1,0-0.1,0-0.2l0,0c0.1-6.9,5.8-12.4,12.7-12.3l0,0   c6.8,0.1,12.3,5.7,12.3,12.5l0,0c0,0.1,0,0.1,0,0.2l0,0c-0.1,6.8-5.7,12.3-12.5,12.3l0,0C768.6,670,768.6,670,768.5,670z    M733.5,669.5c-6.8-0.1-12.3-5.7-12.3-12.5l0,0c0,0,0-0.1,0-0.2l0,0c0.1-6.9,5.8-12.4,12.7-12.3l0,0c6.8,0.1,12.3,5.7,12.3,12.5   l0,0c0,0.1,0,0.1,0,0.2l0,0c-0.1,6.8-5.7,12.3-12.5,12.3l0,0C733.6,669.5,733.6,669.5,733.5,669.5z"></path>	</g>	<g class="st9">		<path class="st7" d="M1268.4,670.2c-6.8-0.1-12.3-5.7-12.3-12.5l0,0c0-0.1,0-0.1,0-0.2l0,0c0.1-6.9,5.8-12.4,12.7-12.3l0,0   c6.9,0.1,12.3,5.7,12.3,12.5l0,0c0,0.1,0,0.1,0,0.2l0,0c-0.1,6.8-5.7,12.3-12.5,12.3l0,0C1268.5,670.2,1268.5,670.2,1268.4,670.2z    M1233.4,669.7c-6.8-0.1-12.3-5.7-12.3-12.5l0,0c0,0,0-0.1,0-0.2l0,0c0.1-6.9,5.8-12.4,12.7-12.3l0,0c6.9,0.1,12.3,5.7,12.3,12.5   l0,0c0,0,0,0.1,0,0.2l0,0c-0.1,6.8-5.7,12.3-12.5,12.3l0,0C1233.5,669.7,1233.5,669.7,1233.4,669.7z"></path>	</g>	<g class="st9">		<path class="st7" d="M838.9,380.6c-6.9,0-12.4-5.6-12.4-12.5l0,0V368l0,0c0-6.9,5.7-12.5,12.6-12.4l0,0c6.9,0,12.4,5.6,12.4,12.5   l0,0v0.1l0,0C851.4,375.1,845.8,380.6,838.9,380.6L838.9,380.6L838.9,380.6z M803.9,380.4c-6.9,0-12.4-5.6-12.4-12.5l0,0v-0.1l0,0   c0-6.9,5.7-12.5,12.6-12.4l0,0c6.9,0,12.4,5.6,12.4,12.5l0,0v0.1l0,0C816.4,374.9,810.8,380.4,803.9,380.4L803.9,380.4   L803.9,380.4z M768.9,380.3c-6.9,0-12.4-5.6-12.4-12.5l0,0c0,0,0,0,0-0.1l0,0c0-6.9,5.7-12.5,12.6-12.4l0,0   c6.9,0,12.4,5.6,12.4,12.5l0,0v0.1l0,0C781.4,374.7,775.8,380.3,768.9,380.3L768.9,380.3L768.9,380.3z"></path>	</g>	<g class="st9">		<path class="st7" d="M939.9,381.6c-6.9,0-12.5-5.7-12.4-12.6l0,0c0-6.9,5.7-12.5,12.6-12.4l0,0c6.9,0,12.5,5.6,12.4,12.6l0,0   C952.4,376.1,946.8,381.6,939.9,381.6L939.9,381.6L939.9,381.6z M904.9,381.4c-6.9,0-12.5-5.7-12.4-12.6l0,0   c0-6.9,5.7-12.5,12.6-12.4l0,0c6.9,0,12.5,5.7,12.4,12.6l0,0C917.4,375.9,911.8,381.4,904.9,381.4L904.9,381.4L904.9,381.4z    M869.9,381.3c-6.9,0-12.5-5.7-12.4-12.6l0,0c0-6.9,5.7-12.5,12.6-12.4l0,0c6.9,0,12.5,5.7,12.4,12.6l0,0   C882.4,375.7,876.8,381.3,869.9,381.3L869.9,381.3L869.9,381.3z"></path>	</g>	<g class="st9">		<path class="st7" d="M1042.9,380.6c-6.9,0-12.5-5.7-12.4-12.6l0,0c0-6.9,5.7-12.5,12.6-12.4l0,0c6.9,0,12.5,5.6,12.4,12.6l0,0   C1055.4,375.1,1049.8,380.6,1042.9,380.6L1042.9,380.6L1042.9,380.6z M1007.9,380.4c-6.9,0-12.5-5.7-12.4-12.6l0,0   c0-6.9,5.7-12.5,12.6-12.4l0,0c6.9,0,12.5,5.7,12.4,12.6l0,0C1020.4,374.9,1014.8,380.4,1007.9,380.4L1007.9,380.4L1007.9,380.4z    M972.9,380.3c-6.9,0-12.5-5.7-12.4-12.6l0,0c0-6.9,5.7-12.5,12.6-12.4l0,0c6.9,0,12.5,5.7,12.4,12.6l0,0   C985.4,374.7,979.8,380.3,972.9,380.3L972.9,380.3L972.9,380.3z"></path>	</g>	<g class="st9">		<path class="st7" d="M1143.9,381.6c-6.9,0-12.5-5.6-12.4-12.6l0,0c0-6.9,5.7-12.5,12.6-12.4l0,0c6.9,0,12.5,5.6,12.4,12.6l0,0   C1156.4,376.1,1150.8,381.6,1143.9,381.6L1143.9,381.6L1143.9,381.6z M1108.9,381.4c-6.9,0-12.5-5.7-12.4-12.6l0,0   c0-6.9,5.7-12.5,12.6-12.4l0,0c6.9,0,12.5,5.7,12.4,12.6l0,0C1121.4,375.9,1115.8,381.4,1108.9,381.4L1108.9,381.4L1108.9,381.4z    M1073.9,381.3c-6.9,0-12.5-5.7-12.4-12.6l0,0c0-6.9,5.7-12.5,12.6-12.4l0,0c6.9,0,12.5,5.7,12.4,12.6l0,0   C1086.4,375.7,1080.8,381.3,1073.9,381.3L1073.9,381.3L1073.9,381.3z"></path>	</g>	<g class="st9">		<line class="st0" x1="627.9" y1="405.8" x2="729.4" y2="406.3"></line>		<path class="st7" d="M697.9,418.6c-6.9,0-12.4-5.6-12.4-12.5l0,0V406l0,0c0-6.9,5.7-12.5,12.6-12.4l0,0c6.9,0,12.4,5.6,12.4,12.5   l0,0v0.1l0,0C710.4,413.1,704.8,418.6,697.9,418.6L697.9,418.6L697.9,418.6z M662.9,418.4c-6.9,0-12.4-5.6-12.4-12.5l0,0v-0.1l0,0   c0-6.9,5.7-12.5,12.6-12.4l0,0c6.9,0,12.4,5.6,12.4,12.5l0,0v0.1l0,0C675.4,412.9,669.8,418.4,662.9,418.4L662.9,418.4   L662.9,418.4z M627.9,418.3c-6.9,0-12.4-5.6-12.4-12.5l0,0c0,0,0,0,0-0.1l0,0c0-6.9,5.7-12.5,12.6-12.4l0,0   c6.9,0,12.4,5.6,12.4,12.5l0,0v0.1l0,0C640.4,412.7,634.8,418.3,627.9,418.3L627.9,418.3L627.9,418.3z"></path>	</g>	<g class="st9">		<path class="st7" d="M660.9,459.6c-6.9,0-12.4-5.6-12.4-12.5l0,0V447l0,0c0-6.9,5.7-12.5,12.6-12.4l0,0c6.9,0,12.4,5.6,12.4,12.5   l0,0v0.1l0,0C673.4,454.1,667.8,459.6,660.9,459.6L660.9,459.6L660.9,459.6z M625.9,459.4c-6.9,0-12.4-5.6-12.4-12.5l0,0v-0.1l0,0   c0-6.9,5.7-12.5,12.6-12.4l0,0c6.9,0,12.4,5.6,12.4,12.5l0,0v0.1l0,0C638.4,453.9,632.8,459.4,625.9,459.4L625.9,459.4   L625.9,459.4z M590.9,459.3c-6.9,0-12.4-5.6-12.4-12.5l0,0c0,0,0,0,0-0.1l0,0c0-6.9,5.7-12.5,12.6-12.4l0,0   c6.9,0,12.4,5.6,12.4,12.5l0,0v0.1l0,0C603.4,453.7,597.8,459.3,590.9,459.3L590.9,459.3L590.9,459.3z"></path>	</g>	<g class="st9">		<path class="st7" d="M621.9,504.6c-6.9,0-12.4-5.6-12.4-12.5l0,0V492l0,0c0-6.9,5.7-12.5,12.6-12.4l0,0c6.9,0,12.4,5.6,12.4,12.5   l0,0v0.1l0,0C634.4,499.1,628.8,504.6,621.9,504.6L621.9,504.6L621.9,504.6z M586.9,504.4c-6.9,0-12.4-5.6-12.4-12.5l0,0v-0.1l0,0   c0-6.9,5.7-12.5,12.6-12.4l0,0c6.9,0,12.4,5.6,12.4,12.5l0,0v0.1l0,0C599.4,498.9,593.8,504.4,586.9,504.4L586.9,504.4   L586.9,504.4z M551.9,504.3c-6.9,0-12.4-5.6-12.4-12.5l0,0c0,0,0,0,0-0.1l0,0c0-6.9,5.7-12.5,12.6-12.4l0,0   c6.9,0,12.4,5.6,12.4,12.5l0,0v0.1l0,0C564.4,498.7,558.8,504.3,551.9,504.3L551.9,504.3L551.9,504.3z"></path>	</g>	<g class="st9">		<path class="st7" d="M698.9,550.6c-6.9,0-12.4-5.6-12.4-12.5l0,0V538l0,0c0-6.9,5.7-12.5,12.6-12.4l0,0c6.9,0,12.5,5.7,12.4,12.6   l0,0C711.4,545.1,705.8,550.6,698.9,550.6L698.9,550.6L698.9,550.6z M663.9,550.4c-6.9,0-12.5-5.7-12.4-12.6l0,0   c0-6.9,5.7-12.5,12.6-12.4l0,0c6.9,0,12.4,5.6,12.4,12.5l0,0v0.1l0,0C676.4,544.9,670.8,550.4,663.9,550.4L663.9,550.4   L663.9,550.4z M628.9,550.3c-6.9,0-12.4-5.6-12.4-12.5l0,0c0,0,0,0,0-0.1l0,0c0-6.9,5.7-12.5,12.6-12.4l0,0   c6.9,0,12.5,5.7,12.4,12.6l0,0C641.4,544.7,635.8,550.3,628.9,550.3L628.9,550.3L628.9,550.3z"></path>	</g>	<g class="st9">		<path class="st7" d="M587.9,550.6c-6.9,0-12.5-5.7-12.4-12.6l0,0c0-6.9,5.7-12.5,12.6-12.4l0,0c6.9,0,12.4,5.6,12.4,12.5l0,0v0.1   l0,0C600.4,545.1,594.8,550.6,587.9,550.6L587.9,550.6L587.9,550.6z M552.9,550.4c-6.9,0-12.5-5.7-12.4-12.6l0,0   c0-6.9,5.7-12.5,12.6-12.4l0,0c6.9,0,12.5,5.7,12.4,12.6l0,0C565.4,544.9,559.8,550.4,552.9,550.4L552.9,550.4L552.9,550.4z    M517.9,550.3c-6.9,0-12.4-5.6-12.4-12.5l0,0c0,0,0,0,0-0.1l0,0c0-6.9,5.7-12.5,12.6-12.4l0,0c6.9,0,12.5,5.7,12.4,12.6l0,0   C530.4,544.7,524.8,550.3,517.9,550.3L517.9,550.3L517.9,550.3z"></path>	</g>	<g class="st9">		<path class="st7" d="M700.9,593.6c-6.9,0-12.5-5.7-12.4-12.6l0,0c0-6.9,5.7-12.5,12.6-12.4l0,0c6.9,0,12.5,5.7,12.4,12.6l0,0   C713.4,588.1,707.8,593.6,700.9,593.6L700.9,593.6L700.9,593.6z M665.9,593.4c-6.9,0-12.5-5.7-12.4-12.6l0,0   c0-6.9,5.7-12.5,12.6-12.4l0,0c6.9,0,12.5,5.7,12.4,12.6l0,0C678.4,587.9,672.8,593.4,665.9,593.4L665.9,593.4L665.9,593.4z    M630.9,593.3c-6.9,0-12.5-5.7-12.4-12.6l0,0c0-6.9,5.7-12.5,12.6-12.4l0,0c6.9,0,12.5,5.7,12.4,12.6l0,0   C643.4,587.7,637.8,593.3,630.9,593.3L630.9,593.3L630.9,593.3z"></path>	</g>	<g class="st9">		<path class="st7" d="M736.9,637.6c-6.9,0-12.5-5.7-12.4-12.6l0,0c0-6.9,5.7-12.5,12.6-12.4l0,0c6.9,0,12.5,5.7,12.4,12.6l0,0   C749.4,632.1,743.8,637.6,736.9,637.6L736.9,637.6L736.9,637.6z M701.9,637.4c-6.9,0-12.5-5.7-12.4-12.6l0,0   c0-6.9,5.7-12.5,12.6-12.4l0,0c6.9,0,12.5,5.7,12.4,12.6l0,0C714.4,631.9,708.8,637.4,701.9,637.4L701.9,637.4L701.9,637.4z    M666.9,637.3c-6.9,0-12.5-5.7-12.4-12.6l0,0c0-6.9,5.7-12.5,12.6-12.4l0,0c6.9,0,12.5,5.7,12.4,12.6l0,0   C679.4,631.7,673.8,637.3,666.9,637.3L666.9,637.3L666.9,637.3z"></path>	</g>	<g class="st6">		<path class="st7" d="M873.9,708.6c-6.9,0-12.5-5.7-12.4-12.6l0,0c0-6.9,5.7-12.5,12.6-12.4l0,0c6.9,0,12.5,5.7,12.4,12.6l0,0   C886.4,703.1,880.8,708.6,873.9,708.6L873.9,708.6L873.9,708.6z M838.9,708.4c-6.9,0-12.5-5.7-12.4-12.6l0,0   c0-6.9,5.7-12.5,12.6-12.4l0,0c6.9,0,12.5,5.7,12.4,12.6l0,0C851.4,702.9,845.8,708.4,838.9,708.4L838.9,708.4L838.9,708.4z    M803.9,708.3c-6.9,0-12.5-5.7-12.4-12.6l0,0c0-6.9,5.7-12.5,12.6-12.4l0,0c6.9,0,12.5,5.7,12.4,12.6l0,0   C816.4,702.7,810.8,708.3,803.9,708.3L803.9,708.3L803.9,708.3z"></path>	</g>	<g class="st6">		<path class="st7" d="M974.9,709.6c-6.9,0-12.5-5.7-12.4-12.6l0,0c0-6.9,5.7-12.5,12.6-12.4l0,0c6.9,0,12.5,5.7,12.4,12.6l0,0   C987.4,704.1,981.8,709.6,974.9,709.6L974.9,709.6L974.9,709.6z M939.9,709.4c-6.9,0-12.5-5.7-12.4-12.6l0,0   c0-6.9,5.7-12.5,12.6-12.4l0,0c6.9,0,12.5,5.7,12.4,12.6l0,0C952.4,703.9,946.8,709.4,939.9,709.4L939.9,709.4L939.9,709.4z    M904.9,709.3c-6.9,0-12.5-5.7-12.4-12.6l0,0c0-6.9,5.7-12.5,12.6-12.4l0,0c6.9,0,12.5,5.7,12.4,12.6l0,0   C917.4,703.7,911.8,709.3,904.9,709.3L904.9,709.3L904.9,709.3z"></path>	</g>	<g class="st9">		<path class="st7" d="M905.9,349.6c-6.9,0-12.4-5.6-12.4-12.5l0,0V337l0,0c0-6.9,5.7-12.5,12.6-12.4l0,0c6.9,0,12.4,5.6,12.4,12.5   l0,0v0.1l0,0C918.4,344.1,912.8,349.6,905.9,349.6L905.9,349.6L905.9,349.6z M870.9,349.4c-6.9,0-12.4-5.6-12.4-12.5l0,0v-0.1l0,0   c0-6.9,5.7-12.5,12.6-12.4l0,0c6.9,0,12.4,5.6,12.4,12.5l0,0v0.1l0,0C883.4,343.9,877.8,349.4,870.9,349.4L870.9,349.4   L870.9,349.4z M835.9,349.3c-6.9,0-12.4-5.6-12.4-12.5l0,0c0,0,0,0,0-0.1l0,0c0-6.9,5.7-12.5,12.6-12.4l0,0   c6.9,0,12.4,5.6,12.4,12.5l0,0v0.1l0,0C848.4,343.7,842.8,349.3,835.9,349.3L835.9,349.3L835.9,349.3z"></path>	</g>	<g class="st9">		<path class="st7" d="M1009.9,349.6c-6.9,0-12.5-5.6-12.4-12.6l0,0c0-6.9,5.7-12.5,12.6-12.4l0,0c6.9,0,12.5,5.7,12.4,12.6l0,0   C1022.4,344.1,1016.8,349.6,1009.9,349.6L1009.9,349.6L1009.9,349.6z M974.9,349.4c-6.9,0-12.5-5.7-12.4-12.6l0,0   c0-6.9,5.7-12.5,12.6-12.4l0,0c6.9,0,12.5,5.7,12.4,12.6l0,0C987.4,343.9,981.8,349.4,974.9,349.4L974.9,349.4L974.9,349.4z    M939.9,349.3c-6.9,0-12.5-5.7-12.4-12.6l0,0c0-6.9,5.7-12.5,12.6-12.4l0,0c6.9,0,12.5,5.7,12.4,12.6l0,0   C952.4,343.7,946.8,349.3,939.9,349.3L939.9,349.3L939.9,349.3z"></path>	</g>	<g class="st9">		<path class="st7" d="M1076.9,709.6c-6.9,0-12.5-5.7-12.4-12.6l0,0c0-6.9,5.7-12.5,12.6-12.4l0,0c6.9,0,12.5,5.7,12.4,12.6l0,0   C1089.4,704.1,1083.8,709.6,1076.9,709.6L1076.9,709.6L1076.9,709.6z M1041.9,709.4c-6.9,0-12.5-5.7-12.4-12.6l0,0   c0-6.9,5.7-12.5,12.6-12.4l0,0c6.9,0,12.5,5.7,12.4,12.6l0,0C1054.4,703.9,1048.8,709.4,1041.9,709.4L1041.9,709.4L1041.9,709.4z    M1006.9,709.3c-6.9,0-12.5-5.7-12.4-12.6l0,0c0-6.9,5.7-12.5,12.6-12.4l0,0c6.9,0,12.5,5.7,12.4,12.6l0,0   C1019.4,703.7,1013.8,709.3,1006.9,709.3L1006.9,709.3L1006.9,709.3z"></path>	</g>	<g class="st6">		<path class="st7" d="M1174.9,709.6c-6.9,0-12.5-5.7-12.4-12.6l0,0c0-6.9,5.7-12.5,12.6-12.4l0,0c6.9,0,12.5,5.7,12.4,12.6l0,0   C1187.4,704.1,1181.8,709.6,1174.9,709.6L1174.9,709.6L1174.9,709.6z M1139.9,709.4c-6.9,0-12.5-5.7-12.4-12.6l0,0   c0-6.9,5.7-12.5,12.6-12.4l0,0c6.9,0,12.5,5.7,12.4,12.6l0,0C1152.4,703.9,1146.8,709.4,1139.9,709.4L1139.9,709.4L1139.9,709.4z    M1104.9,709.3c-6.9,0-12.5-5.7-12.4-12.6l0,0c0-6.9,5.7-12.5,12.6-12.4l0,0c6.9,0,12.5,5.7,12.4,12.6l0,0   C1117.4,703.7,1111.8,709.3,1104.9,709.3L1104.9,709.3L1104.9,709.3z"></path>	</g>	<g class="st6">		<path class="st7" d="M939.9,745.6c-6.9,0-12.5-5.7-12.4-12.6l0,0c0-6.9,5.7-12.5,12.6-12.4l0,0c6.9,0,12.5,5.7,12.4,12.6l0,0   C952.4,740.1,946.8,745.6,939.9,745.6L939.9,745.6L939.9,745.6z M904.9,745.4c-6.9,0-12.5-5.7-12.4-12.6l0,0   c0-6.9,5.7-12.5,12.6-12.4l0,0c6.9,0,12.5,5.7,12.4,12.6l0,0C917.4,739.9,911.8,745.4,904.9,745.4L904.9,745.4L904.9,745.4z    M869.9,745.3c-6.9,0-12.5-5.7-12.4-12.6l0,0c0-6.9,5.7-12.5,12.6-12.4l0,0c6.9,0,12.5,5.7,12.4,12.6l0,0   C882.4,739.7,876.8,745.3,869.9,745.3L869.9,745.3L869.9,745.3z"></path>	</g>	<g class="st9">		<path class="st7" d="M1042.9,746.6c-6.9,0-12.5-5.7-12.4-12.6l0,0c0-6.9,5.7-12.5,12.6-12.4l0,0c6.9,0,12.5,5.7,12.4,12.6l0,0   C1055.4,741.1,1049.8,746.6,1042.9,746.6L1042.9,746.6L1042.9,746.6z M1007.9,746.4c-6.9,0-12.5-5.7-12.4-12.6l0,0   c0-6.9,5.7-12.5,12.6-12.4l0,0c6.9,0,12.5,5.7,12.4,12.6l0,0C1020.4,740.9,1014.8,746.4,1007.9,746.4L1007.9,746.4L1007.9,746.4z    M972.9,746.3c-6.9,0-12.5-5.7-12.4-12.6l0,0c0-6.9,5.7-12.5,12.6-12.4l0,0c6.9,0,12.5,5.7,12.4,12.6l0,0   C985.4,740.7,979.8,746.3,972.9,746.3L972.9,746.3L972.9,746.3z"></path>	</g>	<g class="st9">		<path class="st7" d="M939.9,315.1c-5.5,0-10-4.5-9.9-10l0,0c0-5.5,4.5-10,10-10l0,0c5.5,0,10,4.5,10,10l0,0   C949.9,310.7,945.4,315.1,939.9,315.1L939.9,315.1L939.9,315.1z M904.9,314.9c-5.5,0-10-4.5-9.9-10.1l0,0c0-5.5,4.5-10,10-9.9l0,0   c5.5,0,10,4.5,10,10l0,0C914.9,310.5,910.4,314.9,904.9,314.9L904.9,314.9L904.9,314.9z M869.9,314.8c-5.5,0-10-4.5-9.9-10l0,0   c0-5.5,4.5-10,10-10l0,0c5.5,0,10,4.5,10,10.1l0,0C879.9,310.3,875.4,314.8,869.9,314.8L869.9,314.8L869.9,314.8z"></path>	</g>	<g class="st9">		<path class="st7" d="M1245.9,379.1c-5.5,0-10-4.5-10-10l0,0c0-5.5,4.5-10,10-10l0,0c5.5,0,10,4.5,10,10.1l0,0   C1255.9,374.7,1251.4,379.1,1245.9,379.1L1245.9,379.1L1245.9,379.1z M1210.9,378.9c-5.5,0-10-4.5-10-10.1l0,0   c0-5.5,4.5-10,10-9.9l0,0c5.5,0,10,4.5,10,10l0,0C1220.9,374.5,1216.4,378.9,1210.9,378.9L1210.9,378.9L1210.9,378.9z    M1175.9,378.8c-5.5,0-10-4.5-10-10l0,0c0-5.5,4.5-10,10-10l0,0c5.5,0,10,4.5,10,10.1l0,0C1185.9,374.3,1181.4,378.8,1175.9,378.8   L1175.9,378.8L1175.9,378.8z"></path>	</g>	<g class="st9">		<path class="st7" d="M1331.9,419.1c-5.5,0-10-4.5-10-10l0,0c0-5.5,4.5-10,10-10l0,0c5.5,0,10,4.5,10,10.1l0,0   C1341.9,414.7,1337.4,419.1,1331.9,419.1L1331.9,419.1L1331.9,419.1z M1296.9,418.9c-5.5,0-10-4.5-10-10.1l0,0   c0-5.5,4.5-10,10-9.9l0,0c5.5,0,10,4.5,10,10l0,0C1306.9,414.5,1302.4,418.9,1296.9,418.9L1296.9,418.9L1296.9,418.9z    M1261.9,418.8c-5.5,0-10-4.5-10-10l0,0c0-5.5,4.5-10,10-10l0,0c5.5,0,10,4.5,10,10.1l0,0C1271.9,414.3,1267.4,418.8,1261.9,418.8   L1261.9,418.8L1261.9,418.8z"></path>	</g>	<g class="st9">		<path class="st7" d="M1436.9,461.1c-5.5,0-10-4.5-10-10l0,0c0-5.5,4.5-10,10-10l0,0c5.5,0,10,4.5,10,10l0,0   C1446.9,456.7,1442.4,461.1,1436.9,461.1L1436.9,461.1L1436.9,461.1z M1401.9,460.9c-5.5,0-10-4.5-10-10.1l0,0   c0-5.5,4.5-10,10-9.9l0,0c5.5,0,10,4.5,10,10l0,0C1411.9,456.5,1407.4,460.9,1401.9,460.9L1401.9,460.9L1401.9,460.9z    M1366.9,460.8c-5.5,0-10-4.5-10-10l0,0c0-5.5,4.5-10,10-10l0,0c5.5,0,10,4.5,10,10.1l0,0C1376.9,456.3,1372.4,460.8,1366.9,460.8   L1366.9,460.8L1366.9,460.8z"></path>	</g>	<g class="st9">		<path class="st7" d="M1470.9,505.1c-5.5,0-10-4.5-10-10l0,0c0-5.5,4.5-10,10-10l0,0c5.5,0,10,4.5,10,10l0,0   C1480.9,500.7,1476.4,505.1,1470.9,505.1L1470.9,505.1L1470.9,505.1z M1435.9,504.9c-5.5,0-10-4.5-10-10.1l0,0   c0-5.5,4.5-10,10-9.9l0,0c5.5,0,10,4.5,10,10l0,0C1445.9,500.5,1441.4,504.9,1435.9,504.9L1435.9,504.9L1435.9,504.9z    M1400.9,504.8c-5.5,0-10-4.5-10-10l0,0c0-5.5,4.5-10,10-10l0,0c5.5,0,10,4.5,10,10.1l0,0C1410.9,500.3,1406.4,504.8,1400.9,504.8   L1400.9,504.8L1400.9,504.8z"></path>	</g>	<g class="st9">		<path class="st7" d="M1548.9,547.1c-5.5,0-10-4.5-10-10l0,0c0-5.5,4.5-10,10-10l0,0c5.5,0,10,4.5,10,10l0,0   C1558.9,542.7,1554.4,547.1,1548.9,547.1L1548.9,547.1L1548.9,547.1z M1513.9,546.9c-5.5,0-10-4.5-10-10.1l0,0   c0-5.5,4.5-10,10-9.9l0,0c5.5,0,10,4.5,10,10l0,0C1523.9,542.5,1519.4,546.9,1513.9,546.9L1513.9,546.9L1513.9,546.9z    M1478.9,546.8c-5.5,0-10-4.5-10-10l0,0c0-5.5,4.5-10,10-10l0,0c5.5,0,10,4.5,10,10.1l0,0C1488.9,542.3,1484.4,546.8,1478.9,546.8   L1478.9,546.8L1478.9,546.8z"></path>	</g>	<g class="st9">		<path class="st7" d="M1519.9,591.1c-5.5,0-10-4.5-10-10l0,0c0-5.5,4.5-10,10-10l0,0c5.5,0,10,4.5,10,10l0,0   C1529.9,586.7,1525.4,591.1,1519.9,591.1L1519.9,591.1L1519.9,591.1z M1484.9,590.9c-5.5,0-10-4.5-10-10l0,0c0-5.5,4.5-10,10-10   l0,0c5.5,0,10,4.5,10,10l0,0C1494.9,586.5,1490.4,590.9,1484.9,590.9L1484.9,590.9L1484.9,590.9z M1449.9,590.8   c-5.5,0-10-4.5-10-10.1l0,0c0-5.5,4.5-10,10-9.9l0,0c5.5,0,10,4.5,10,10l0,0C1459.9,586.3,1455.4,590.8,1449.9,590.8L1449.9,590.8   L1449.9,590.8z"></path>	</g>	<g class="st9">		<path class="st7" d="M1499.9,631.1c-5.5,0-10-4.5-10-10l0,0c0-5.5,4.5-10,10-10l0,0c5.5,0,10,4.5,10,10l0,0   C1509.9,626.7,1505.4,631.1,1499.9,631.1L1499.9,631.1L1499.9,631.1z M1464.9,630.9c-5.5,0-10-4.5-10-10l0,0c0-5.5,4.5-10,10-10   l0,0c5.5,0,10,4.5,10,10l0,0C1474.9,626.5,1470.4,630.9,1464.9,630.9L1464.9,630.9L1464.9,630.9z M1429.9,630.8   c-5.5,0-10-4.5-10-10.1l0,0c0-5.5,4.5-10,10-9.9l0,0c5.5,0,10,4.5,10,10l0,0C1439.9,626.3,1435.4,630.8,1429.9,630.8L1429.9,630.8   L1429.9,630.8z"></path>	</g>	<g class="st9">		<path class="st7" d="M1367.9,669.1c-5.5,0-10-4.5-10-10l0,0c0-5.5,4.5-10,10-10l0,0c5.5,0,10,4.5,10,10l0,0   C1377.9,664.7,1373.4,669.1,1367.9,669.1L1367.9,669.1L1367.9,669.1z M1332.9,668.9c-5.5,0-10-4.5-10-10l0,0c0-5.5,4.5-10,10-10   l0,0c5.5,0,10,4.5,10,10l0,0C1342.9,664.5,1338.4,668.9,1332.9,668.9L1332.9,668.9L1332.9,668.9z M1297.9,668.8   c-5.5,0-10-4.5-10-10.1l0,0c0-5.5,4.5-10,10-9.9l0,0c5.5,0,10,4.5,10,10l0,0C1307.9,664.3,1303.4,668.8,1297.9,668.8L1297.9,668.8   L1297.9,668.8z"></path>	</g>	<g class="st9">		<path class="st7" d="M1283.9,709.1c-5.5,0-10-4.5-10-10l0,0c0-5.5,4.5-10,10-10l0,0c5.5,0,10,4.5,10,10l0,0   C1293.9,704.7,1289.4,709.1,1283.9,709.1L1283.9,709.1L1283.9,709.1z M1248.9,708.9c-5.5,0-10-4.5-10-10l0,0c0-5.5,4.5-10,10-10   l0,0c5.5,0,10,4.5,10,10l0,0C1258.9,704.5,1254.4,708.9,1248.9,708.9L1248.9,708.9L1248.9,708.9z M1213.9,708.8   c-5.5,0-10-4.5-10-10.1l0,0c0-5.5,4.5-10,10-9.9l0,0c5.5,0,10,4.5,10,10l0,0C1223.9,704.3,1219.4,708.8,1213.9,708.8L1213.9,708.8   L1213.9,708.8z"></path>	</g>	<g class="st9">		<path class="st7" d="M1143.9,743.1c-5.5,0-10-4.5-10-10l0,0c0-5.5,4.5-10,10-10l0,0c5.5,0,10,4.5,10,10l0,0   C1153.9,738.7,1149.4,743.1,1143.9,743.1L1143.9,743.1L1143.9,743.1z M1108.9,742.9c-5.5,0-10-4.5-10-10l0,0c0-5.5,4.5-10,10-10   l0,0c5.5,0,10,4.5,10,10l0,0C1118.9,738.5,1114.4,742.9,1108.9,742.9L1108.9,742.9L1108.9,742.9z M1073.9,742.8   c-5.5,0-10-4.5-10-10.1l0,0c0-5.5,4.5-10,10-9.9l0,0c5.5,0,10,4.5,10,10l0,0C1083.9,738.3,1079.4,742.8,1073.9,742.8L1073.9,742.8   L1073.9,742.8z"></path>	</g>	<g class="st9">		<path class="st7" d="M974.9,779.1c-5.5,0-10-4.5-10-10l0,0c0-5.5,4.5-10,10-10l0,0c5.5,0,10,4.5,10,10.1l0,0   C984.9,774.7,980.4,779.1,974.9,779.1L974.9,779.1L974.9,779.1z M939.9,778.9c-5.5,0-10-4.5-9.9-10l0,0c0-5.5,4.5-10,10-10l0,0   c5.5,0,10,4.5,10,10l0,0C949.9,774.5,945.4,778.9,939.9,778.9L939.9,778.9L939.9,778.9z M904.9,778.8c-5.5,0-10-4.5-9.9-10.1l0,0   c0-5.5,4.5-10,10-9.9l0,0c5.5,0,10,4.5,10,10l0,0C914.9,774.3,910.4,778.8,904.9,778.8L904.9,778.8L904.9,778.8z"></path>	</g>	<g class="st9">		<path class="st7" d="M1076.9,781.1c-5.5,0-10-4.5-10-10l0,0c0-5.5,4.5-10,10-10l0,0c5.5,0,10,4.5,10,10l0,0   C1086.9,776.7,1082.4,781.1,1076.9,781.1L1076.9,781.1L1076.9,781.1z M1041.9,780.9c-5.5,0-10-4.5-10-10l0,0c0-5.5,4.5-10,10-10   l0,0c5.5,0,10,4.5,10,10l0,0C1051.9,776.5,1047.4,780.9,1041.9,780.9L1041.9,780.9L1041.9,780.9z M1006.9,780.8   c-5.5,0-10-4.5-10-10.1l0,0c0-5.5,4.5-10,10-9.9l0,0c5.5,0,10,4.5,10,10l0,0C1016.9,776.3,1012.4,780.8,1006.9,780.8L1006.9,780.8   L1006.9,780.8z"></path>	</g>	<g class="st9">		<path class="st7" d="M520.9,500.1c-5.5,0-10-4.5-9.9-10l0,0c0-5.5,4.5-10,10-10l0,0c5.5,0,10,4.5,10,10.1l0,0   C530.9,495.7,526.4,500.1,520.9,500.1L520.9,500.1L520.9,500.1z M485.9,499.9c-5.5,0-10-4.5-9.9-10.1l0,0c0-5.5,4.5-10,10-9.9l0,0   c5.5,0,10,4.5,10,10l0,0C495.9,495.5,491.4,499.9,485.9,499.9L485.9,499.9L485.9,499.9z M450.9,499.8c-5.5,0-10-4.5-9.9-10l0,0   c0-5.5,4.5-10,10-10l0,0c5.5,0,10,4.5,10,10.1l0,0C460.9,495.3,456.4,499.8,450.9,499.8L450.9,499.8L450.9,499.8z"></path>	</g>	<g class="st9">		<path class="st7" d="M479.9,547.1c-5.5,0-10-4.5-9.9-10l0,0c0-5.5,4.5-10,10-10l0,0c5.5,0,10,4.5,10,10.1l0,0   C489.9,542.7,485.4,547.1,479.9,547.1L479.9,547.1L479.9,547.1z M444.9,546.9c-5.5,0-10-4.5-9.9-10.1l0,0c0-5.5,4.5-10,10-9.9l0,0   c5.5,0,10,4.5,10,10l0,0C454.9,542.5,450.4,546.9,444.9,546.9L444.9,546.9L444.9,546.9z M409.9,546.8c-5.5,0-10-4.5-9.9-10l0,0   c0-5.5,4.5-10,10-10l0,0c5.5,0,10,4.5,10,10.1l0,0C419.9,542.3,415.4,546.8,409.9,546.8L409.9,546.8L409.9,546.8z"></path>	</g>	<g class="st9">		<path class="st7" d="M505.9,446.4c0-5.5,4.4-10,10-10l0,0c5.5,0,10,4.4,10,10l0,0c0,5.5-4.5,10-10,10l0,0l0,0l0,0   C510.4,456.4,505.9,451.9,505.9,446.4z M540.9,446.3c0-5.5,4.4-10,10-10l0,0c5.5,0,10,4.5,10,10l0,0c0,5.5-4.5,10-10,10l0,0l0,0   l0,0C545.4,456.3,540.9,451.8,540.9,446.3z"></path>	</g>	<g class="st9">		<path class="st7" d="M589.9,590.1c-5.5,0-10-4.5-9.9-10l0,0c0-5.5,4.5-10,10-10l0,0c5.5,0,10,4.5,10,10l0,0   C599.9,585.7,595.4,590.1,589.9,590.1L589.9,590.1L589.9,590.1z M554.9,589.9c-5.5,0-10-4.5-9.9-10l0,0c0-5.5,4.5-10,10-10l0,0   c5.5,0,10,4.5,10,10l0,0C564.9,585.5,560.4,589.9,554.9,589.9L554.9,589.9L554.9,589.9z M519.9,589.8c-5.5,0-10-4.5-9.9-10.1l0,0   c0-5.5,4.5-10,10-9.9l0,0c5.5,0,10,4.5,10,10l0,0C529.9,585.3,525.4,589.8,519.9,589.8L519.9,589.8L519.9,589.8z"></path>	</g>	<g class="st9">		<path class="st7" d="M591.9,625.4c0-5.5,4.4-10,10-10l0,0c5.5,0,10,4.5,10,10l0,0c0,5.5-4.5,10-10,10l0,0l0,0l0,0   C596.4,635.4,591.9,630.9,591.9,625.4z M626.9,625.3c0-5.5,4.4-10,10-10l0,0c5.5,0,10,4.4,10,10l0,0c0,5.5-4.5,10-10,10l0,0l0,0   l0,0C631.4,635.3,626.9,630.9,626.9,625.3z"></path>	</g>	<g class="st9">		<path class="st7" d="M897.2,872.3c0-4.1,3.4-7.5,7.5-7.5l0,0c4.1,0,7.5,3.4,7.5,7.5l0,0c0,4.1-3.4,7.5-7.5,7.5l0,0   C900.5,879.8,897.2,876.4,897.2,872.3z M897.2,837.3c0-4.1,3.4-7.5,7.5-7.5l0,0c4.1,0,7.5,3.4,7.5,7.5l0,0c0,4.1-3.4,7.5-7.5,7.5   l0,0C900.5,844.8,897.2,841.4,897.2,837.3z M897.2,802.3c0-4.1,3.4-7.5,7.5-7.5l0,0c4.1,0,7.5,3.4,7.5,7.5l0,0   c0,4.1-3.4,7.5-7.5,7.5l0,0C900.5,809.8,897.2,806.4,897.2,802.3z"></path>	</g>	<g class="st9">		<path class="st7" d="M862.2,839.3c0-4.1,3.4-7.5,7.5-7.5l0,0c4.1,0,7.5,3.4,7.5,7.5l0,0c0,4.1-3.4,7.5-7.5,7.5l0,0   C865.5,846.8,862.2,843.4,862.2,839.3z M862.2,804.3c0-4.1,3.4-7.5,7.5-7.5l0,0c4.1,0,7.5,3.4,7.5,7.5l0,0c0,4.1-3.4,7.5-7.5,7.5   l0,0C865.5,811.8,862.2,808.4,862.2,804.3z M862.2,769.3c0-4.1,3.4-7.5,7.5-7.5l0,0c4.1,0,7.5,3.4,7.5,7.5l0,0   c0,4.1-3.4,7.5-7.5,7.5l0,0C865.5,776.8,862.2,773.4,862.2,769.3z"></path>	</g>	<g class="st9">		<path class="st7" d="M832.2,803.3c0-4.1,3.4-7.5,7.5-7.5l0,0c4.1,0,7.5,3.4,7.5,7.5l0,0c0,4.1-3.4,7.5-7.5,7.5l0,0   C835.5,810.8,832.2,807.4,832.2,803.3z M832.2,768.3c0-4.1,3.4-7.5,7.5-7.5l0,0c4.1,0,7.5,3.4,7.5,7.5l0,0c0,4.1-3.4,7.5-7.5,7.5   l0,0C835.5,775.8,832.2,772.4,832.2,768.3z M832.2,733.3c0-4.1,3.4-7.5,7.5-7.5l0,0c4.1,0,7.5,3.4,7.5,7.5l0,0   c0,4.1-3.4,7.5-7.5,7.5l0,0C835.5,740.8,832.2,737.4,832.2,733.3z"></path>	</g>	<g class="st9">		<path class="st7" d="M796.2,802.3c0-4.1,3.4-7.5,7.5-7.5l0,0c4.1,0,7.5,3.4,7.5,7.5l0,0c0,4.1-3.4,7.5-7.5,7.5l0,0   C799.5,809.8,796.2,806.4,796.2,802.3z M796.2,767.3c0-4.1,3.4-7.5,7.5-7.5l0,0c4.1,0,7.5,3.4,7.5,7.5l0,0c0,4.1-3.4,7.5-7.5,7.5   l0,0C799.5,774.8,796.2,771.4,796.2,767.3z M796.2,732.3c0-4.1,3.4-7.5,7.5-7.5l0,0c4.1,0,7.5,3.4,7.5,7.5l0,0   c0,4.1-3.4,7.5-7.5,7.5l0,0C799.5,739.8,796.2,736.4,796.2,732.3z"></path>	</g>	<g class="st9">		<path class="st7" d="M757.2,764.3c0-4.1,3.4-7.5,7.5-7.5l0,0c4.1,0,7.5,3.4,7.5,7.5l0,0c0,4.1-3.4,7.5-7.5,7.5l0,0   C760.5,771.8,757.2,768.4,757.2,764.3z M757.2,729.3c0-4.1,3.4-7.5,7.5-7.5l0,0c4.1,0,7.5,3.4,7.5,7.5l0,0c0,4.1-3.4,7.5-7.5,7.5   l0,0C760.5,736.8,757.2,733.4,757.2,729.3z M757.2,694.3c0-4.1,3.4-7.5,7.5-7.5l0,0c4.1,0,7.5,3.4,7.5,7.5l0,0   c0,4.1-3.4,7.5-7.5,7.5l0,0C760.5,701.8,757.2,698.4,757.2,694.3z"></path>	</g>	<g class="st9">		<path class="st7" d="M726.2,765.3c0-4.1,3.4-7.5,7.5-7.5l0,0c4.1,0,7.5,3.4,7.5,7.5l0,0c0,4.1-3.4,7.5-7.5,7.5l0,0   C729.5,772.8,726.2,769.4,726.2,765.3z M726.2,730.3c0-4.1,3.4-7.5,7.5-7.5l0,0c4.1,0,7.5,3.4,7.5,7.5l0,0c0,4.1-3.4,7.5-7.5,7.5   l0,0C729.5,737.8,726.2,734.4,726.2,730.3z M726.2,695.3c0-4.1,3.4-7.5,7.5-7.5l0,0c4.1,0,7.5,3.4,7.5,7.5l0,0   c0,4.1-3.4,7.5-7.5,7.5l0,0C729.5,702.8,726.2,699.4,726.2,695.3z"></path>	</g>	<g class="st9">		<path class="st7" d="M931.2,874.3c0-4.1,3.4-7.5,7.5-7.5l0,0c4.1,0,7.5,3.4,7.5,7.5l0,0c0,4.1-3.4,7.5-7.5,7.5l0,0   C934.5,881.8,931.2,878.4,931.2,874.3z M931.2,839.3c0-4.1,3.4-7.5,7.5-7.5l0,0c4.1,0,7.5,3.4,7.5,7.5l0,0c0,4.1-3.4,7.5-7.5,7.5   l0,0C934.5,846.8,931.2,843.4,931.2,839.3z M931.2,804.3c0-4.1,3.4-7.5,7.5-7.5l0,0c4.1,0,7.5,3.4,7.5,7.5l0,0   c0,4.1-3.4,7.5-7.5,7.5l0,0C934.5,811.8,931.2,808.4,931.2,804.3z"></path>	</g>	<g class="st9">		<path class="st7" d="M967.2,874.3c0-4.1,3.4-7.5,7.5-7.5l0,0c4.1,0,7.5,3.4,7.5,7.5l0,0c0,4.1-3.4,7.5-7.5,7.5l0,0   C970.5,881.8,967.2,878.4,967.2,874.3z M967.2,839.3c0-4.1,3.4-7.5,7.5-7.5l0,0c4.1,0,7.5,3.4,7.5,7.5l0,0c0,4.1-3.4,7.5-7.5,7.5   l0,0C970.5,846.8,967.2,843.4,967.2,839.3z M967.2,804.3c0-4.1,3.4-7.5,7.5-7.5l0,0c4.1,0,7.5,3.4,7.5,7.5l0,0   c0,4.1-3.4,7.5-7.5,7.5l0,0C970.5,811.8,967.2,808.4,967.2,804.3z"></path>	</g>	<g class="st9">		<path class="st7" d="M863.2,273.3c0-4.1,3.4-7.5,7.5-7.5l0,0c4.1,0,7.5,3.4,7.5,7.5l0,0c0,4.1-3.4,7.5-7.5,7.5l0,0   C866.5,280.8,863.2,277.4,863.2,273.3z M863.2,238.3c0-4.1,3.4-7.5,7.5-7.5l0,0c4.1,0,7.5,3.4,7.5,7.5l0,0c0,4.1-3.4,7.5-7.5,7.5   l0,0C866.5,245.8,863.2,242.4,863.2,238.3z M863.2,203.3c0-4.1,3.4-7.5,7.5-7.5l0,0c4.1,0,7.5,3.4,7.5,7.5l0,0   c0,4.1-3.4,7.5-7.5,7.5l0,0C866.5,210.8,863.2,207.4,863.2,203.3z"></path>	</g>	<g class="st9">		<path class="st7" d="M897.2,273.3c0-4.1,3.4-7.5,7.5-7.5l0,0c4.1,0,7.5,3.4,7.5,7.5l0,0c0,4.1-3.4,7.5-7.5,7.5l0,0   C900.5,280.8,897.2,277.4,897.2,273.3z M897.2,238.3c0-4.1,3.4-7.5,7.5-7.5l0,0c4.1,0,7.5,3.4,7.5,7.5l0,0c0,4.1-3.4,7.5-7.5,7.5   l0,0C900.5,245.8,897.2,242.4,897.2,238.3z M897.2,203.3c0-4.1,3.4-7.5,7.5-7.5l0,0c4.1,0,7.5,3.4,7.5,7.5l0,0   c0,4.1-3.4,7.5-7.5,7.5l0,0C900.5,210.8,897.2,207.4,897.2,203.3z"></path>	</g>	<g class="st9">		<path class="st7" d="M933,271.9c0-4.1,3.3-7.5,7.5-7.5l0,0c4.1,0,7.5,3.3,7.5,7.5l0,0c0,4.1-3.3,7.5-7.5,7.5l0,0l0,0l0,0   C936.4,279.4,933.1,276.1,933,271.9z M932.9,236.9c0-4.1,3.3-7.5,7.5-7.5l0,0c4.1,0,7.5,3.3,7.5,7.5l0,0c0,4.1-3.3,7.5-7.5,7.5   l0,0l0,0l0,0C936.3,244.4,932.9,241.1,932.9,236.9z"></path>	</g>	<g class="st9">		<path class="st7" d="M967.2,306.3c0-4.1,3.4-7.5,7.5-7.5l0,0c4.1,0,7.5,3.4,7.5,7.5l0,0c0,4.1-3.4,7.5-7.5,7.5l0,0   C970.5,313.8,967.2,310.4,967.2,306.3z M967.2,271.3c0-4.1,3.4-7.5,7.5-7.5l0,0c4.1,0,7.5,3.4,7.5,7.5l0,0c0,4.1-3.4,7.5-7.5,7.5   l0,0C970.5,278.8,967.2,275.4,967.2,271.3z M967.2,236.3c0-4.1,3.4-7.5,7.5-7.5l0,0c4.1,0,7.5,3.4,7.5,7.5l0,0   c0,4.1-3.4,7.5-7.5,7.5l0,0C970.5,243.8,967.2,240.4,967.2,236.3z"></path>	</g>	<g class="st9">		<path class="st7" d="M1002.1,305.9c0-4.1,3.3-7.5,7.5-7.5l0,0c4.1,0,7.5,3.3,7.5,7.5l0,0c0,4.1-3.3,7.5-7.5,7.5l0,0l0,0l0,0   C1005.4,313.4,1002.1,310.1,1002.1,305.9z M1001.9,270.9c0-4.1,3.3-7.5,7.5-7.5l0,0c4.1,0,7.5,3.3,7.5,7.5l0,0   c0,4.1-3.3,7.5-7.5,7.5l0,0l0,0l0,0C1005.3,278.4,1001.9,275.1,1001.9,270.9z"></path>	</g>	<g class="st9">		<path class="st7" d="M722.4,368c0-4.1,3.4-7.5,7.5-7.5l0,0c4.1,0,7.5,3.4,7.5,7.5l0,0c0,4.1-3.4,7.5-7.5,7.5l0,0   C725.8,375.5,722.4,372.2,722.4,368z M687.4,368c0-4.1,3.4-7.5,7.5-7.5l0,0c4.1,0,7.5,3.4,7.5,7.5l0,0c0,4.1-3.4,7.5-7.5,7.5l0,0   C690.8,375.5,687.4,372.2,687.4,368z M652.4,368c0-4.1,3.4-7.5,7.5-7.5l0,0c4.1,0,7.5,3.4,7.5,7.5l0,0c0,4.1-3.4,7.5-7.5,7.5l0,0   C655.8,375.5,652.4,372.2,652.4,368z"></path>	</g>	<g class="st9">		<path class="st7" d="M796.4,337c0-4.1,3.4-7.5,7.5-7.5l0,0c4.1,0,7.5,3.4,7.5,7.5l0,0c0,4.1-3.4,7.5-7.5,7.5l0,0   C799.8,344.5,796.4,341.2,796.4,337z M761.4,337c0-4.1,3.4-7.5,7.5-7.5l0,0c4.1,0,7.5,3.4,7.5,7.5l0,0c0,4.1-3.4,7.5-7.5,7.5l0,0   C764.8,344.5,761.4,341.2,761.4,337z M726.4,337c0-4.1,3.4-7.5,7.5-7.5l0,0c4.1,0,7.5,3.4,7.5,7.5l0,0c0,4.1-3.4,7.5-7.5,7.5l0,0   C729.8,344.5,726.4,341.2,726.4,337z"></path>	</g>	<g class="st9">		<path class="st7" d="M831.4,305c0-4.1,3.4-7.5,7.5-7.5l0,0c4.1,0,7.5,3.4,7.5,7.5l0,0c0,4.1-3.4,7.5-7.5,7.5l0,0   C834.8,312.5,831.4,309.2,831.4,305z M796.4,305c0-4.1,3.4-7.5,7.5-7.5l0,0c4.1,0,7.5,3.4,7.5,7.5l0,0c0,4.1-3.4,7.5-7.5,7.5l0,0   C799.8,312.5,796.4,309.2,796.4,305z M761.4,305c0-4.1,3.4-7.5,7.5-7.5l0,0c4.1,0,7.5,3.4,7.5,7.5l0,0c0,4.1-3.4,7.5-7.5,7.5l0,0   C764.8,312.5,761.4,309.2,761.4,305z"></path>	</g>	<g class="st9">		<path class="st7" d="M1038.4,337c0-4.1,3.3-7.5,7.5-7.5l0,0c4.1,0,7.5,3.4,7.5,7.5l0,0c0,4.1-3.4,7.5-7.5,7.5l0,0   C1041.8,344.5,1038.4,341.2,1038.4,337z M1073.4,337c0-4.1,3.3-7.5,7.5-7.5l0,0c4.1,0,7.5,3.4,7.5,7.5l0,0c0,4.1-3.4,7.5-7.5,7.5   l0,0C1076.8,344.5,1073.4,341.1,1073.4,337z M1108.4,337c0-4.1,3.3-7.5,7.5-7.5l0,0c4.1,0,7.5,3.3,7.5,7.5l0,0   c0,4.1-3.4,7.5-7.5,7.5l0,0C1111.8,344.5,1108.4,341.1,1108.4,337z M1143.4,336.9c0-4.1,3.3-7.5,7.5-7.5l0,0   c4.1,0,7.5,3.3,7.5,7.5l0,0c0,4.1-3.4,7.5-7.5,7.5l0,0C1146.8,344.4,1143.4,341.1,1143.4,336.9z"></path>	</g>	<g class="st9">		<path class="st7" d="M1236.4,734c0-4.1,3.4-7.5,7.5-7.5l0,0c4.1,0,7.5,3.4,7.5,7.5l0,0c0,4.1-3.4,7.5-7.5,7.5l0,0   C1239.8,741.5,1236.4,738.2,1236.4,734z M1201.4,734c0-4.1,3.4-7.5,7.5-7.5l0,0c4.1,0,7.5,3.4,7.5,7.5l0,0c0,4.1-3.4,7.5-7.5,7.5   l0,0C1204.8,741.5,1201.4,738.2,1201.4,734z M1166.4,734c0-4.1,3.4-7.5,7.5-7.5l0,0c4.1,0,7.5,3.4,7.5,7.5l0,0   c0,4.1-3.4,7.5-7.5,7.5l0,0C1169.8,741.5,1166.4,738.2,1166.4,734z"></path>	</g>	<g class="st9">		<path class="st7" d="M1167.4,769c0-4.1,3.4-7.5,7.5-7.5l0,0c4.1,0,7.5,3.4,7.5,7.5l0,0c0,4.1-3.4,7.5-7.5,7.5l0,0   C1170.8,776.5,1167.4,773.2,1167.4,769z M1132.4,769c0-4.1,3.4-7.5,7.5-7.5l0,0c4.1,0,7.5,3.4,7.5,7.5l0,0c0,4.1-3.4,7.5-7.5,7.5   l0,0C1135.8,776.5,1132.4,773.2,1132.4,769z M1097.4,769c0-4.1,3.4-7.5,7.5-7.5l0,0c4.1,0,7.5,3.4,7.5,7.5l0,0   c0,4.1-3.4,7.5-7.5,7.5l0,0C1100.8,776.5,1097.4,773.2,1097.4,769z"></path>	</g>	<g class="st9">		<path class="st7" d="M1068.4,804c0-4.1,3.4-7.5,7.5-7.5l0,0c4.1,0,7.5,3.4,7.5,7.5l0,0c0,4.1-3.4,7.5-7.5,7.5l0,0   C1071.8,811.5,1068.4,808.2,1068.4,804z M1033.4,804c0-4.1,3.4-7.5,7.5-7.5l0,0c4.1,0,7.5,3.4,7.5,7.5l0,0c0,4.1-3.4,7.5-7.5,7.5   l0,0C1036.8,811.5,1033.4,808.2,1033.4,804z M998.4,804c0-4.1,3.4-7.5,7.5-7.5l0,0c4.1,0,7.5,3.4,7.5,7.5l0,0   c0,4.1-3.4,7.5-7.5,7.5l0,0C1001.8,811.5,998.4,808.2,998.4,804z"></path>	</g>	<g class="st9">		<path class="st7" d="M998.4,837c0-4.1,3.3-7.5,7.5-7.5l0,0c4.1,0,7.5,3.3,7.5,7.5l0,0c0,4.1-3.4,7.5-7.5,7.5l0,0l0,0l0,0   C1001.8,844.5,998.4,841.2,998.4,837z M1033.4,837c0-4.1,3.3-7.5,7.5-7.5l0,0c4.1,0,7.5,3.3,7.5,7.5l0,0c0,4.1-3.4,7.5-7.5,7.5   l0,0l0,0l0,0C1036.8,844.5,1033.4,841.1,1033.4,837z"></path>	</g>	<g class="st9">		<path class="st7" d="M1106.4,305c0-4.1,3.4-7.5,7.5-7.5l0,0c4.1,0,7.5,3.4,7.5,7.5l0,0c0,4.1-3.4,7.5-7.5,7.5l0,0   C1109.8,312.5,1106.4,309.2,1106.4,305z M1071.4,305c0-4.1,3.4-7.5,7.5-7.5l0,0c4.1,0,7.5,3.4,7.5,7.5l0,0c0,4.1-3.4,7.5-7.5,7.5   l0,0C1074.8,312.5,1071.4,309.2,1071.4,305z M1036.4,305c0-4.1,3.4-7.5,7.5-7.5l0,0c4.1,0,7.5,3.4,7.5,7.5l0,0   c0,4.1-3.4,7.5-7.5,7.5l0,0C1039.8,312.5,1036.4,309.2,1036.4,305z"></path>	</g>	<g class="st9">		<path class="st7" d="M1567.4,495c0-4.1,3.4-7.5,7.5-7.5l0,0c4.1,0,7.5,3.4,7.5,7.5l0,0c0,4.1-3.4,7.5-7.5,7.5l0,0   C1570.8,502.5,1567.4,499.2,1567.4,495z M1532.4,495c0-4.1,3.4-7.5,7.5-7.5l0,0c4.1,0,7.5,3.4,7.5,7.5l0,0c0,4.1-3.4,7.5-7.5,7.5   l0,0C1535.8,502.5,1532.4,499.2,1532.4,495z M1497.4,495c0-4.1,3.4-7.5,7.5-7.5l0,0c4.1,0,7.5,3.4,7.5,7.5l0,0   c0,4.1-3.4,7.5-7.5,7.5l0,0C1500.8,502.5,1497.4,499.2,1497.4,495z"></path>	</g>	<g class="st9">		<path class="st7" d="M1577.4,537c0-4.1,3.3-7.5,7.5-7.5l0,0c4.1,0,7.5,3.3,7.5,7.5l0,0c0,4.1-3.3,7.5-7.5,7.5l0,0l0,0l0,0   C1580.8,544.5,1577.4,541.2,1577.4,537z M1612.4,537c0-4.2,3.3-7.5,7.5-7.5l0,0c4.1,0,7.5,3.3,7.5,7.5l0,0c0,4.1-3.3,7.5-7.5,7.5   l0,0l0,0l0,0C1615.8,544.4,1612.4,541.1,1612.4,537z"></path>	</g>	<g class="st9">		<path class="st7" d="M1540.4,580c0-4.1,3.3-7.5,7.5-7.5l0,0c4.2,0,7.5,3.3,7.5,7.5l0,0c0,4.1-3.3,7.5-7.5,7.5l0,0l0,0l0,0   C1543.8,587.5,1540.5,584.2,1540.4,580z"></path>	</g></g><g id="Frame_00000002349024579145352630000013136744212334903733_">	<path class="st10" d="M1924.7,1084.9c0.1,3.2,0.3,1.4,0.2-7.3l-0.3-6.2L1924.7,1084.9z"></path>	<path class="st10" d="M1925.3,1026.3c-0.2-10.2-0.4-22-0.8-15.4c0.3,10.1,0.2,12.6,0.6,23.5c0,8.7-0.1,15.2-0.2,13.7  c0.1,3.1-0.1,13.5,0.1,18.2c0.3-11.3,0.3-25.7,0.1-40.7C1925.2,1022.5,1925.3,1025.6,1925.3,1026.3L1925.3,1026.3z"></path>	<path class="st10" d="M1925.9,175.5v5.5C1925.8,179.5,1925.8,177.6,1925.9,175.5z"></path>	<path class="st10" d="M1568.8,4.2c4,0,5.7,0,5.9-0.1C1570.9,4.2,1567.9,4.2,1568.8,4.2z"></path>	<path class="st10" d="M1478.8,3.9c1.9,0,3.6,0,5.3,0C1482.1,3.9,1480,3.9,1478.8,3.9z"></path>	<path class="st10" d="M1925.9,175.5l0.1-14.1C1925.8,160.4,1925.9,168.6,1925.9,175.5z"></path>	<path class="st10" d="M1924.6,909c0,3,0.1,5.4,0.1,7.7c0-2.4,0-4.8,0-7.2C1924.6,909.3,1924.6,909.2,1924.6,909L1924.6,909z"></path>	<path class="st10" d="M1926.1,407.9v4.3c0.1,1.3,0.1,2.4,0.1,3.6L1926.1,407.9z"></path>	<path class="st10" d="M1926.2,586.2c0-4-0.3-5.4-0.4-7c0.1,2.3,0.2,5.3,0.2,8.8C1926,588.1,1926.1,587.6,1926.2,586.2L1926.2,586.2  z"></path>	<path class="st10" d="M1925.7,869v5C1925.7,872.8,1925.7,870.6,1925.7,869z"></path>	<path class="st10" d="M1926.2,280.2c0-0.3,0.1-0.9,0.1-1.6C1926.2,278.6,1926.2,279.2,1926.2,280.2z"></path>	<path class="st10" d="M1718.7,1083.6C1718.5,1083.6,1718.7,1083.6,1718.7,1083.6C1719.7,1083.6,1720,1083.6,1718.7,1083.6z"></path>	<path class="st10" d="M1925.4,1085h-2.9c-0.3,0.1-0.6,0.1-0.6,0.2L1925.4,1085L1925.4,1085z"></path>	<path class="st10" d="M1314,3.5c0.3,0,0.4,0,0.7,0C1319.1,3.5,1316.6,3.5,1314,3.5z"></path>	<path class="st10" d="M4.2,208.5c0.2-17.1,0.3,27.9,0.6,2.1C4.7,213,4.4,187.2,4.2,208.5z"></path>	<path class="st10" d="M1924.6,904.4c0-2.4,0-4.9,0-7.3C1924.6,900.4,1924.6,902.7,1924.6,904.4z"></path>	<path class="st10" d="M4.8,210.6L4.8,210.6v-2.7C4.9,209,4.9,209.7,4.8,210.6z"></path>	<path class="st10" d="M934.5,3.7c0.8,0.1,2.3,0.1,3.9,0.1C938.2,3.8,937.3,3.8,934.5,3.7z"></path>	<path class="st10" d="M1217.2,4.1h-7C1213,4.1,1215.3,4.1,1217.2,4.1z"></path>	<path class="st10" d="M787.7,4.1c-3.8,0-5.1-0.1-10.3,0c0.5,0,1,0,1.6,0C780.8,4.1,783.3,4.1,787.7,4.1L787.7,4.1z"></path>	<path class="st10" d="M634.9,4.1c0.8,0,1.9,0,2.8,0.1c1.5,0,3.3,0,4.8,0L634.9,4.1L634.9,4.1z"></path>	<path class="st10" d="M1254.2,1083.7c3.3,0.1,5.4,0.2,7.1,0.2C1258.9,1083.8,1281.4,1083.7,1254.2,1083.7z"></path>	<path class="st10" d="M1924.7,908.9c-0.1-0.9-0.1-2.2-0.1-4.5c0,1.8,0,3.4,0,5.1C1924.7,909.9,1924.7,910,1924.7,908.9  L1924.7,908.9z"></path>	<path class="st10" d="M781.4,6.3h-24.3C764,6.3,772.8,6.3,781.4,6.3z"></path>	<path class="st10" d="M158,1083.8h5.6C161.4,1083.7,159.4,1083.7,158,1083.8z"></path>	<path class="st10" d="M685.1,6.3c-4.3-0.1-8.9-0.2-13.7-0.2c-1,0-2.2,0-2.8,0.1L685.1,6.3z"></path>	<path class="st10" d="M1261.4,1084L1261.4,1084C1261.3,1084,1261.3,1084,1261.4,1084z"></path>	<path class="st10" d="M1421.3,1083.3c-23.1,0-10.9,0.4-15.8,0.6c-27.6,0.1-12.8-0.3-22.2-0.5c-17.2,0.1-30.5,0.4-43.3,0.4  c-1-0.1-3.5-0.1-0.5-0.2c-18.2,0.3-54.1,0-75.3,0.4c-1.6,0-2.4-0.1-2.8-0.1c3.4,0.2,4,0.4,3.3,0.5c-10.4,0-19.2,0.2-23.2,0  c6.4,0,6.9-0.1,9.9-0.2l-10.9,0.1c-4.9-0.2-1.2-0.2,3.8-0.2c2.5,0,5.2,0,7.4,0c1.1,0,2,0,2.7,0s1,0,1-0.1  c-21.2,0.1-45.9,0.4-62.1,0.3c-3.4-0.3,38-0.1,16.3-0.4l25.1,0.1c-19.2-0.5,15.3,0-2.4-0.5c-33.1,0-37,0-70,0.1  c-7.4,0.2,2.4,0.3-5,0.5c-46.9,0.3-36.9-0.8-71.4-0.4c-8.9,0.2-12.4,0.7-36.9,0.4l8.4-0.4c-32,0-18.3,0.6-51.8,0.3  c6-0.2,25.2-0.1,20.3-0.2c-21.7-0.3-15.4,0.2-32.1,0.2l-3.5-0.3c-34.1,0.1-71.6,0.2-109.4,0.4c2.1-0.1,8.6-0.2-0.3-0.3  c-47.6,0.2-101.6,0-147.5-0.2l-17.5,0.3c-4.1,0-7.6-0.1-3.2-0.2c-17.9-0.1-0.9,0.2-9.5,0.3c-10.2,0-13.5-0.2-7-0.3  c-31.6,0.2-90,0.5-123.2,0.2l6.5-0.1c-25.9-0.1-29.2,0.6-53.3,0.3l4.6-0.1c-56.2-0.1-118.4,0.1-161.3-0.3  c-8.2,0.4-55.7-0.2-59.3,0.4c-32.1-0.3-22.9-0.4-68.1-0.6c-12.1,0-18,0.4-32.9,0.4l-0.4-0.3l-20.3,0.3l-10.8-0.4l-14,0.1  c5.6,0,11.9,0.1,11,0.2c-10.9,0.1-24.3,0-34.9-0.1c-5.3-0.1-10-0.1-13.4-0.2s-5.4-0.1-5.6-0.1l-51.8,0.3c1.2-0.1,9.8-0.2,16.7-0.2  c-27.6,0.3-5-0.3-30.3,0c3.4,0.1-1.8,0.2-2.4,0.2c-4.9-0.1-12.2-0.1-20.6-0.1c-8,0-17,0-25.6,0c0-4.8,0-9.5,0-13.9l0.2,4.1  c0-38.4-0.1-80.9-0.1-124c-0.1,15.5-0.5,11.9-0.5-0.7l0.3-5c0-8.2,0,13.1-0.2-3.6c0-16.1,0.4-10.8,0.5-1.6l-0.1-19.6  c0.1-1.2,0.2,3.4,0.3,4.6c-0.2-8,0.3-33.8,0-45.4l0.1-1.1c-0.1-43.1-0.1-62.6-0.1-97.7c-0.3-0.7-0.2-14.4-0.4-24.9  c0.1-25.8,0.3-54.4,0.3-85.5c-0.1-21.8-0.2-6.4-0.4-16.2c0.3-1.6,0.2-32.6,0.4-16.5c0-37.3-0.1-47.6-0.3-94.8  c-0.1,5.1-0.2,10.9-0.2,7.9c0-8.6,0.1-19.5,0.2-18.2v2.3c-0.4-52.9,0.8-122.2,0.2-164.3v2.4l-0.3-43.7c0-20.1,0.2,12.1,0.3-2.8  c-0.4-47.1,0.1-74.5-0.2-113.3c0.7-30-0.1-106.6,0.4-147.2l-0.2,2.3C6.6,56.8,6.8,54.6,6.9,46.9C6.8,48,6.7,58.3,6.6,51.8  c0-15,0-30.2-0.1-45.7C80.8,6.3,158,6.4,232.9,6.6c33.3,0.1,18.9-0.9,60.9-0.5l-11.9,0.3c67.2-0.4,137.4,0,203.2-0.3  c-3.9,0.1-4,0.2-10.5,0.2c7,0.1,19.8,0.1,30.9,0.1c5.6,0,10.7-0.1,14.5-0.1c1.9,0,3.4-0.1,4.5-0.1s1.7-0.1,1.7-0.1  c10.2,0,2.4,0.2,8.7,0.3c13.9,0.1,35-0.3,42.4-0.1c1.3,0-3.9,0.1-6.5,0.1c9.1-0.1,42.3,0,33.6-0.2c24.7,0.1,47.2-0.1,66.9,0  c12.8-0.3,42.3,0.2,46.3-0.3c-1.8,0.4,43.3,0.4,58.9,0.2c-5.2,0.1,13.6,0.1,7.5,0.3c17.8,0,34.2-0.1,31-0.3  c32.8,0.5,66-0.4,84.5,0.3c52.9-0.2,101.9-0.3,149.5-0.5c-1.7,0.4-52.6,0-50.6,0.5c45.2-0.2,71.2-0.6,116-0.5  c11.6,0.1-6.6,0.2-10.5,0.3c45.1-0.2,87.2,0,127.4-0.2c-0.1,0-1.2,0-2.8,0.1c-1.6,0.1-3.7,0-5.8,0.1c7.9,0,18.4,0.1,17.5-0.1  l-7.7,0.1c-12.6-0.3,31.4-0.6,32.8-0.8c-13.4,0.6,39.7,0.2,18.3,0.9c5.2,0,11.7-0.1,10.6-0.3c7.7,0,10.2,0.1,2.3,0.3  c28.3-0.1,18.3-0.3,43.9-0.3c-0.1,0.1-1.4,0.1-3,0.1s-3.6,0.1-4.9,0.1c13-0.2,26.1-0.4,47.8-0.3C1379,6,1381.5,6,1375,6  c37.3,0,63.5-0.5,104.4-0.3c-12.1,0.4,13.9,0.1,16.1,0.5l22-0.1l-8.8-0.2c19.3,0,36.3-0.3,52.8-0.1L1547.2,6l36.1-0.1l-20.4-0.1  c19.5-0.2-2.1-0.5,23.6-0.4c-5.2,0,19.3,0,29.3,0.2h-0.1c9.5-0.1,19.3-0.2,33.6-0.2c3.7,0.1-3,0.4-0.6,0.5c9.4-0.3,45.1-0.1,57-0.4  c-4,0.1-4.2,0.3-2.9,0.3l7.9-0.2c8.9,0.1,10.2,0.1,8.8,0.3c26.8,0.1-8.5-0.5,23.3-0.3c-2.5,0-1.3,0.1-6.5,0.1c32,0,61.8,0,91.2,0  c8.7,0.4-25.7,0.1-15.8,0.4c37-0.1,76.4-0.2,112.9-0.4c0,5.1,0,10,0,14.9V13c0.5,5.7-0.3,30.5,0,51.3c0-5.1-0.3-6.7-0.2-5.3  c-0.1,28.1,0.1,57.4,0.3,100l-0.1-5.3c-0.1,16.6-0.1,43.6-0.1,61.5c0.1,5.3,0.1,15.5,0.3,9.3c-0.8,55.1,0.4,105.2-0.2,154.1  c0-5.9-0.1-13.9-0.1-9.3l0.1,41.7c0.2-3.3,0.1-5.5,0.3-14.2c0.1,5.3,0.2,17,0.2,27.4c-0.2-18.7-0.4,0.2-0.5,8.3  c0.1-1.4,0.2,1.4,0.2,0.7c-0.4,21.8,0.5,3.6,0.2,33.4l-0.1-1.6c0.1,11.1,0.2,21.4,0.2,33.4c-0.3,5-0.1-11.8-0.3-12.6  c0,16.8,0.5,33.2,0.2,48.5c0-7.2-0.1-17.4-0.2-24.6c-0.3,16.6-0.2,18.5-0.3,30.9v-1.2l-0.1,28.5l0.1-7.3  c0.7,21.1,0.1,42.9,0.6,71.3c-0.4-27.6-0.2-4.6-0.6-6.7c-0.1,7.2-0.2,18.3-0.3,15.1c0.2,13.4-0.2,22.4,0.2,41.3  c-0.1,0.8,0,14.4-0.2,11.3c0.1,17.5,0.2-4.1,0.3-2.7c0.3,26.9-0.4,63.2,0.1,101.9c0.2,33.4,0.5,39.5,0.7,70.5  c-0.2,10.5-0.4-8.6-0.4-8.6c-0.1,16.9-0.1,29.5,0,45.4c-0.1-3.2-0.2,0.1-0.3,4.9c0,12.8,0.4,8.5,0.2,25.3  c-0.1-2.9-0.3-6.6-0.4-12.7c0.1,15,0.2,29.9,0.4,45.4c-0.2,4.1-0.3-9.4-0.4-14.9c0.1,17.5,0.2,45.3,0.4,50.7l0.1-11.2  c0,6.4-0.2,3.3-0.3-1.4c-0.2-15,0.1-21.6,0.2-22.5l0.1,11.1c0.6-11.4-0.1-44.5-0.1-66.8l0.4,9.3l-0.3-22.9c0.1-4.9,0.3-8.2,0.4,2.8  c0.2-16-0.2-14.2,0.1-27.9c0-1.5,0.1-0.8,0.1,0.6l-0.1-15.6c0.1,3.1,0.3-2.6,0.2,7c0.2-28-0.3-45.2,0-55.8v2.3  c-0.1-38.9-0.3-3.8-0.7-32.9l0.8-19.6l-0.3-3.8c0-4,0-12,0.2-10.5c-0.2-14.9-0.1,2.5-0.3-6.1c0.3-19.3-0.1-53.2,0.4-57.6  c-0.2-6.9-0.2,18.5-0.3-2.2c0.5-5.9-0.1-23.8,0.2-41.5c0.3,5.4,0.1,22.1,0.4,4.5c-0.5-10.6,0.1-34.3,0-49.2  c-0.2-0.3-0.2-8.4-0.2-19.6s0-25.3-0.1-37.8c0.1,1.6,0.2-47,0.3-70.2l0.1,0.7c-0.4-4.5-0.3-28.5-0.4-45.9c0.2,0.7,0.3,3.8,0.4,13.3  v-16.4c-0.1-3.9-0.2-9-0.2-19.6l0.3,4.1c0-21.8-0.3-44-0.1-72c-0.3-1.6-0.7,22.3-0.9-7.4c0.1-1.1,0.4-2.2,0.4,5.6  c0-2.5-0.1-9.1-0.1-14.2l0.2,11.9c0.1-12.8-0.2-6.7-0.2-16.9c0.2,0.2,0.1-7.6,0.3-6.1c0,2.6-0.1,8.9,0,12.8  c0-11.5,0.2-25.5,0.3-30.1c-0.1,1-0.3,0-0.3-8.4c0-21.8,0.2-7.5,0.3-20.2c-0.1-5.3,0-19.2-0.3-19.6c0-6.4,0.1-7.6,0.2-10  c-0.1-11.3,0-52.8-0.3-40v2.9c0-0.5,0-1.2,0-1.9v0.1v-0.4c-0.3-37,0.2-76.9,0-113.7l0.1,0.1c0-11-0.1-23.2-0.1-34.6  c0-5.7,0-11.2-0.1-16.3c0-5.1-0.1-9.9-0.1-13.8l0,0c-1.7,0-3.6,0-5.3,0s-3.3-0.1-4.7-0.1c-2.7-0.1-4.2-0.1-2.8-0.2  c-16.8,0.1-18.7,0.2-42.9,0c16.9-0.2-5.8-0.2,17.3-0.1c-21.8-0.1-26.7-0.2-50.1,0c8-0.2-16.4-0.3-26.8-0.2l15.3,0.2  c-11.6,0-21.8,0-32.2,0l5.6-0.3c-44.6-0.4-80.4,0.7-114.3,0c-11.8,0.2,24.2,0.2,13.7,0.4c-20.5,0-41.9-0.5-48.3-0.5  c-28.1-0.2-26.2,0.5-55.6,0.4c3.8,0.1,7.3,0.4-14.7,0.6c-20.5,0-25.2-0.5-12.3-0.6c4.9,0,7.3,0,7.1,0.1c6.6,0,15.3-0.1,7.2-0.2  l-2.7,0.1c-10.2-0.1-38.4-0.1-31.8-0.3c-15.5,0.1-6.6,0.2,4.9,0.3c-26.3-0.2-41.1,0-68.2-0.1c4.3,0.1,8.3,0.2,4,0.2  c-39.7-0.2-17.5,0.2-44.4,0.3c-15.3-0.2,5.5-0.4-21.6-0.3c-16.6-0.1-3.5-0.3,3.1-0.4c-24.7,0.2-46.1-0.2-60.2-0.2l13-0.1  c-7.8,0-14.2,0-20.6,0.1l7.4,0.2c-3.8,0-7.3,0-9.9-0.1c-2.6,0-4.1,0-4.1-0.1c-7.9,0.2,6,0.4-9.6,0.6c-10.2-0.1-31,0.1-34.5-0.2  c32,0.1-3.5-0.3,23.6-0.4c-5.2,0-11.6,0-19.3,0c-1.2,0,1.1-0.1,3.2-0.1c-30.6-0.3-14,0.3-45.8,0.3c4-0.2-7.4-0.3-12.5-0.3  c12.8,0,6.1,0.3-5.6,0.4c-20.4-0.1-22.1,0.1-32.8,0.1l12.2,0.1c-4.1,0.2-14.3,0.2-28.5,0.2c-1.2-0.1,12.9-0.1,7.8-0.2  c-15.8,0.3-35.6-0.3-57.6-0.1c-10.2-0.1-1-0.3-9.9-0.4c-24.6,0.2-26.7-0.2-52.6-0.1c7.5,0.2,8.8,0.2-9.5,0.4l42.6-0.2l-27.3,0.3  c12.8,0,27.1-0.1,34.8-0.1c-13,0.2-11.7,0.1-5.5,0.3c-17.6-0.4-34.8,0.2-55.2,0l0.6-0.6c-30.5-0.3-54.3,0.3-93.9,0.2L988.1,4  c-5.3,0.2-24.5,0-37.3,0.1c1.2-0.2-6.8-0.3-12.3-0.4c0.7,0.2-29,0-32.6,0.4l-17.7-0.3c-32-0.1-36.5,0.6-67.3,0.5  c9.3-0.2-4.7-0.3,15.9-0.5c-5.1,0-10,0-13.6,0c-1.8,0-3.3,0-4.3,0s-1.7,0-1.7,0.1c-6-0.1-28.5,0.3-38,0.1  c-4.3,0.1-5.8,0.3-17.3,0.3c-1.3,0,0-0.1,0-0.1s-0.1,0-0.2,0c-0.1,0-0.3,0-0.6,0c-0.5,0-1.2,0-1.9,0c-1.5,0-3.5,0-5.1,0.1  c-3.2,0.1-5.2,0.1-0.2,0.2c-31.7-0.6-88.5,0-116.1-0.5c-22.4,0.1-49.5,0.1-69.8,0.1c1.3-0.1,0.1-0.1,3.9-0.1  c-28.1-0.2-17.3,0.6-49.2,0.4c-16.3-0.3,17-0.2,6.8-0.3c-4.4-0.7-38.6,0.1-60.1-0.3h5.2c-16.4-0.2-40.1,0.2-67,0.2  c0,0,1.3-0.1,0.2-0.1c-18.4,0.3-53.1,0.4-79,0.5c8-0.2,11.7-0.1,6.8-0.4C324,4,339,4.4,315.9,4.5c-7.5-0.1-24.2-0.3-26.4-0.5h21.8  c-11.2-0.4-28.2,0-39.7-0.1l1.5-0.2c-33.4,0.1-33.9,0.4-69.8,0.4l3.7,0.1c-19.6,0.4-16.5-0.2-36,0.1l-5.9-0.4  C152.2,4,119.7,4.2,96.5,4.4c12.9-0.1,40.1-0.2,56.9-0.4c-12.8,0-43.6,0-50.3,0.2c5.2,0,11.7-0.1,16.8-0.1  c-15.8,0.4-36.5,0.5-62.1,0.5c1.5-0.2-5.1-0.4-15.4-0.4c-10.5,0-24.6-0.1-37.8-0.1c0,7.2-0.1,14.1-0.1,20c0,5.7-0.1,10.5-0.2,13.7  c0.3,45.3-0.1,89.8-0.1,142.5c0.6-18.7,0,15.4,0.6,12.2c0,12.3,0,17,0,18.1l-0.4,37.2c-0.2,8.8-0.1-11.7-0.3-10.6  c-0.1,26.9-0.3,11.3-0.4,29.1c0.2-3.6,0.3,9.4,0.2,24.7l0.3-21.6C4.5,307,3.7,301.9,4,339.8l-0.2-12c0.1,19.4,0,71.7,0.5,90.8  c-0.1,3.4-0.2,8-0.3-0.6c0.1,46.5,0.7,103.4,0.4,139.6l-0.2-3.5c0,8.7,0.3,15.1,0.1,25.9c-0.1-0.6-0.2-3.5-0.2,0.5  c0.1,4.6,0.3,23,0.2,34.5l-0.2-9.8c-0.2,45.3,0.4,69.5,0.5,107.5c-0.1,0-0.1,0.5-0.2,1.5s-0.1,2.5-0.1,4.3  c-0.1,3.6-0.1,8.6-0.2,14.2C4,743.8,4,757.2,3.9,766.1l-0.1-0.6C3.7,818.3,4.2,855.1,4.3,904c-0.5,30.3-0.2,102.8-0.5,151.5  c0.1-7.4,0.3,1.2,0.4,9.9c0,2.8,0,6.2,0,9.6c0,3.7,0,7.5,0.1,10.9c1.9,0,3.7,0,5.3,0c1.3,0,2.5,0,3.4,0c1.9,0,2.8,0.1,2.4,0.2h-4.1  c8.6,0.4,32.1,0.3,50.5,0.3l3-0.5c48,0.8,125.8-0.3,152,0.4c11.6-0.1,25.9-0.2,37.4-0.3l-0.6,0.3c32.1,0.1,48.1,0.1,87.8,0  l-8.1,0.2c22.4,0,28.3-0.8,48.9-0.8l6.2,0.4c39,0,78.6,0.4,117.2,0c-0.6,0.1-1.8,0.2-8.1,0.2c18.4,0,71.1,0.3,64.4-0.3  c0.1,0.1,2.7,0.1,6.8,0.2c4.1,0,9.8,0,16.1,0c12.7-0.1,27.9-0.2,38.4-0.3l-3.3,0.3c17.8-0.4,18.4-0.4,43.2-0.6  c5.9,0,5.2,0.2-2.7,0.2c19.6,0.2,15.3-0.3,39.1-0.1l-8.9,0.2c20.2,0,18.6-0.1,29.7-0.3c12.7-0.1,38.3,0.1,41.3,0.3  c2.7-0.2,13.8-0.4,25.7-0.3c1.6,0.1-2.7,0.2-4.9,0.2c33.8,0.2,50.2-0.3,73.5-0.1c0.5,0.1,2,0.1,3.9,0.2c-26.7,0-44.4,0-46.4,0  c0,0.3,21.7,0.3,4.4,0.7c17.4-0.2,47.2-0.6,68.3-0.5c1,0,2,0.1,2.8,0.1h-2.2c4.9,0,9.2,0,13.3,0c6.7,0,11,0.1,17.5,0.1  c2.5,0.2,24.8,0.1,35.7,0.1c-0.9-0.3,13.2-0.2,0-0.5c1.7,0-2,0-9.2,0.1c-1.6,0-3.5,0-4.6,0c0.2,0,0.5,0,0.7,0c-7.1,0-16.3,0-26.9,0  c8.5-0.1,17.5-0.3,29.4-0.1c5.5-0.2,11.7-0.3,15.1-0.4c14.8,0.4,43.3,0.6,47.3,0.8c33-0.2,77.7-0.1,98.5-0.6  c9.4-0.1,10.8,0.2,14.3,0.2c-5.4,0.1-11.9,0-14.8,0.1c18.8-0.1,55.6-0.1,60.1-0.4c23.6,0.2-13.3,0.3,19.2,0.3l-4.4,0.1  c63.9,0.6,103.9-0.9,174.8-0.2c-4.9-0.1-7.4-0.1-8.4-0.1c80.8,0.3,166.5-0.3,246.2,0.2c22.7,0.1,25.1-0.1,38.9-0.3l4.9,0.3  l23.6-0.3c33.5-0.3,58.1,0.7,100.5,0.3l-5.5-0.2c15.2,0,48.3-0.1,45.7,0.1c1.6,0,5-0.2,11-0.1l0.5,0.2l37.4-0.3  c29,0.1-4.5,0.6,37.8,0.7c15.8-0.1,44.8-0.5,38.9-0.6c-6.4,0-16.2-0.1-16.7-0.3l14.4-0.1c2.6-0.5,13.7-0.9-21.7-1.3l-24.6,0.3  l-7.9-0.2h20.7c-11.8-0.2-19.2,0-27.6,0.1c-2-0.1-5.4-0.2-10.3-0.2l-24.2,0.4c-2.9-0.2,10.8-0.4-5.4-0.5  c-11.3,0.2,10.9,0.4-7.9,0.5c-11.8-0.2-8.3-0.4-22.2-0.2c-1.9-0.1,1-0.2,6.5-0.2c-12.3,0.1-32.6,0.1-38.9,0.3  c-12.3-0.3-41.6,0.1-40.4-0.4c-3.9,0.1-21.7,0.3-33,0.4c20.7-0.5-42.3,0-36.9-0.6c-15.3,0.5-55.2,0.2-82.3,0.5  c1.5,0,4.5-0.1,6.9-0.1c-15.2,0-19.7-0.2-29.5-0.3c-2,0.4-25.7,0.5-38.5,0.7c-18.7-0.4,11.3-0.5,5.5-0.8c0.9,0.3-32.5,0.3-26.1,0.6  c-14.3-0.2-12.3-0.1-19.7-0.4c-2.5,0.5-13.3,0.1-25.2,0.4c-20.7-0.2-5.3-0.5-28-0.3C1401,1083.5,1421.3,1083.3,1421.3,1083.3  L1421.3,1083.3z M880.9,1084.1L880.9,1084.1c4.7,0,8.6,0,11.2,0C889.8,1084.1,886.6,1084.1,880.9,1084.1z M835.5,1084.2  c5.5,0,12.4,0,19.7,0c1.6,0.1-0.1,0.2-4.7,0.2C853,1084.3,842.3,1084.2,835.5,1084.2z M931.6,1086.1c-7.2,0-9.6,0-10.6-0.1  c3.4,0,7.4,0,12.6,0c0.2,0,0.6,0,0.8,0C933.7,1086,933,1086.1,931.6,1086.1L931.6,1086.1z"></path>	<path class="st10" d="M944.5,1085.7c1,0,1.6,0,3,0c-1.5,0-2.9,0-4.3-0.1c-0.9,0-1.8,0.1-2.5,0.1  C941.9,1085.7,943.3,1085.7,944.5,1085.7L944.5,1085.7z"></path>	<path class="st10" d="M1925.8,181.9v-1c0,0.8,0,1.5,0,2C1925.8,182.5,1925.8,182.2,1925.8,181.9L1925.8,181.9z"></path>	<polygon class="st10" points="208.5,1083.6 208.6,1083.7 212.6,1083.6  "></polygon>	<path class="st10" d="M1924.8,432c0,0.5-0.1,1.4-0.1,3.3C1924.8,435.1,1924.8,433.7,1924.8,432z"></path>	<path class="st10" d="M1924.8,540l-0.1,15.3C1924.7,548.7,1924.8,543.9,1924.8,540z"></path>	<path class="st10" d="M1924.6,623.1c0.1,1,0.1,1.3,0.1,1.6c0-0.1,0-0.1,0-0.2L1924.6,623.1L1924.6,623.1z"></path>	<path class="st10" d="M1223,6c-1.1,0-2.2,0-3.2,0C1212.2,6,1217.4,6,1223,6z"></path>	<path class="st10" d="M1616,5.3c-4.2,0-8.3,0.1-12.6,0.1C1610.3,5.5,1615.8,5.5,1616,5.3z"></path>	<path class="st10" d="M784.1,6.3L784.1,6.3h-2.7H784.1L784.1,6.3z"></path>	<path class="st10" d="M1585.1,5.5c7,0.1,12.8,0,18.3,0C1597.6,5.4,1590.8,5.4,1585.1,5.5z"></path>	<path class="st10" d="M1924.5,983.1v4c0-0.1,0,0.2,0,0.5V983.1z"></path>	<path class="st10" d="M1924.6,987.6v4.4C1924.6,990,1924.6,988.2,1924.6,987.6z"></path>	<path class="st10" d="M1924.7,1001.3l-0.1-9.3C1924.6,995.2,1924.6,999.2,1924.7,1001.3z"></path>	<path class="st10" d="M1924.6,873.1l-0.1-1.3C1924.6,872.5,1924.6,873,1924.6,873.1z"></path>	<path class="st10" d="M1924.6,839.7c0,8-0.2,20-0.2,31.1l0.1,1C1924.4,866.6,1924.8,847.3,1924.6,839.7L1924.6,839.7z"></path>	<path class="st10" d="M1925.9,700.2l-0.1,28c0.1-4.9,0.2-11.3,0.3,1.4C1926.4,694.4,1925.8,736.9,1925.9,700.2L1925.9,700.2z"></path>	<path class="st10" d="M1926,613.4c0.1,15,0.2-0.2,0.2,0.6C1926.2,604.5,1926.1,602.2,1926,613.4z"></path>	<path class="st10" d="M1906.5,4.3L1908,4C1896.4,4,1907.9,4.1,1906.5,4.3z"></path>	<polygon class="st10" points="1786.6,5.6 1797.9,5.7 1803.2,5.5  "></polygon>	<polygon class="st10" points="1715.7,3.8 1720.8,3.7 1701.5,3.8  "></polygon>	<path class="st10" d="M662,3.8l3.5,0.3C673.4,4.1,675,3.7,662,3.8z"></path>	<path class="st10" d="M207.1,4.2c-4.9-0.2-17.7-0.3-25.6-0.1C191.7,4.1,201.9,4.2,207.1,4.2z"></path>	<polygon class="st10" points="87.9,1086.1 78.7,1086.2 96,1086.2  "></polygon></g><g id="Lines_00000165212357902498439920000010660960709886105004_">	<path id="_x33__00000147221121200335885240000006543747845922420646_" class="st11" d="M1585,784.9  c-102.5,64.2-223.8,97.7-342.2,117.2c-147.1,24.2-298.7,26.4-446.5,7.7C671.9,894.2,545.4,864,434.5,804.4  C363,766,283.7,707.3,266.4,622.7c-2-9.9-3.1-19.9-3.1-30c-0.1-1.8-0.1-0.1-0.1,0.6c0.3,83.4,65.4,147.1,130.8,189.6  c102.4,66.5,225.2,100.9,344.6,121c150.2,25.3,305.2,27.5,456.1,7.8c125.3-16.3,253.4-47.3,364.7-109.2  c71.4-39.7,150.5-101.2,162.1-188c0.7-5.6,1.1-11.2,1.3-16.9C1719.8,680.4,1650.7,743.8,1585,784.9z"></path>	<g id="_x32__00000100361285800566040440000000768423107392475777_">		<path class="st12" d="M1728.6,538.5l-1.5,0.3l3.3-0.1C1731.2,538.6,1730.7,538.5,1728.6,538.5z"></path>		<path class="st12" d="M1718.2,538.4c2,0,3.5,0.1,3.2,0.2c0.8-0.1,3.3,0.1,4.5-0.1C1723.7,538.3,1721.1,538.3,1718.2,538.4z"></path>		<path class="st12" d="M1717.9,538.4c0.1,0,0.2,0,0.4,0c-0.1,0-0.2,0-0.2,0C1718,538.4,1717.9,538.4,1717.9,538.4z"></path>		<path class="st12" d="M1716,538.2c-2.5,0.1-5.4,0.4-3.8,0.7c2.5-0.3,3.1-0.2,5.7-0.5c-0.6,0-1.3,0.1-2,0.1   C1715.1,538.3,1715.8,538.3,1716,538.2z"></path>		<path class="st12" d="M1689.1,538.8c-0.6,0-1.2,0-1.9,0.1C1687.9,538.9,1688.5,538.9,1689.1,538.8z"></path>		<path class="st12" d="M420.8,539.2c-0.8-0.1-1.3-0.2-1.7-0.2C419.7,539.2,414.2,539.2,420.8,539.2z"></path>		<path class="st12" d="M1686.1,538.9c0.6,0,0.9,0,1.1-0.1C1686.9,538.9,1686.5,538.9,1686.1,538.9z"></path>		<path class="st12" d="M1156.1,539.3l4.1,0.1c-1.1-0.1-2.2-0.1-3.4-0.2C1156.6,539.2,1156.3,539.2,1156.1,539.3z"></path>		<path class="st12" d="M288.2,539.1c-0.4,0-0.7,0-1.1,0C287.5,539.2,287.9,539.1,288.2,539.1z"></path>		<path class="st12" d="M558.8,539.1c-0.2,0-0.4,0-0.6,0C558.4,539.2,558.6,539.1,558.8,539.1z"></path>		<path class="st12" d="M708.2,539.1c1,0,2.2,0,3-0.1C710.6,539,709.7,539,708.2,539.1z"></path>		<path class="st12" d="M400.3,539.1c-0.1,0-0.2,0-0.4,0C400.1,539.2,400.2,539.1,400.3,539.1z"></path>		<path class="st12" d="M1621.5,538.2L1621.5,538.2C1621.5,538.3,1621.6,538.2,1621.5,538.2z"></path>		<path class="st12" d="M1469.2,538.1c-0.6,0-1.2,0-1.9,0l0,0H1469.2z"></path>		<path class="st12" d="M1133.1,539c-0.2,0-0.5,0-0.6,0C1132.7,539.1,1132.9,539,1133.1,539z"></path>		<path class="st12" d="M864.2,538.8C864.2,538.7,864.2,538.7,864.2,538.8c-0.2,0-0.3,0-0.5,0H864.2z"></path>		<path class="st12" d="M1264.7,538.6c-0.4,0-0.8,0-1.2,0C1263.7,538.7,1264.2,538.6,1264.7,538.6z"></path>		<path class="st12" d="M269.9,539.2L269.9,539.2C269.8,539.1,269.8,539.1,269.9,539.2L269.9,539.2z"></path>		<path class="st12" d="M1674.6,536.5c0.4,0,0.7,0,1.1,0C1675.2,536.5,1674.8,536.5,1674.6,536.5z"></path>		<path class="st12" d="M1662,536.6L1662,536.6c0.2,0,0.4,0,0.6,0H1662z"></path>		<path class="st12" d="M1577.4,536.5c0.1,0,0.1,0,0.2,0l0,0H1577.4z"></path>		<path class="st12" d="M1709.4,537.6l-2.1-0.1c0.5,0.1-0.1,0.2-1,0.2c-3.7,0.2-5.3-0.1-5.5-0.2l2.7-0.1c-2.8-0.5-10.9,0.1-16.4,0   l2.3-0.4l-5.6,0.3c-1.2-0.1-2-0.3,0.7-0.4c-3.9-0.2-3.5,0.1-6.8-0.1c-0.4,0-0.2,0,0.1-0.1l-3.8,0.1c0.6-0.1-0.1-0.2,0.6-0.2   c-6.2-0.1-10.1,0.3-12.6,0c-8.7,0.1-0.5,0.3-7.6,0.6l-4.8-0.7l-0.9,0.3c-1,0-2.9,0-2.6-0.1c-3.7,0.2,0.6,0.1-1.5,0.3   c-4.8-0.2-13.1,0.1-14.2-0.3c-1.7,0.2,4.5,0.2-0.5,0.3c-1.4-0.5-5.9,0.1-10.2-0.1c1.3-0.2,5.4-0.1,1.1-0.3   c-2.6,0.4-8.4-0.1-12.1,0c-0.2,0.3-7.9,0.1-14.1,0.2c0.4-0.1-11.3-0.2-17.1-0.3c-1.1,0.3-7,0.3-11.3,0.3c0.2-0.2,0.9-0.3,3.3-0.4   h-4c-0.9,0.1-2.2,0.2-4.8,0.2l1-0.2c-5.4,0-10.8,0.3-17.7,0.1c-0.4,0.2,5.5,0.6-1.8,0.8c-0.3-0.1-0.5-0.3,1.4-0.4   c-0.6,0-2.2,0.1-3.5,0l2.9-0.2c-3.1-0.1-1.6,0.2-4.2,0.2c0.1-0.2-1.9-0.1-1.5-0.3c0.6,0,2.2,0.1,3.2,0c-2.8,0-6.3-0.1-7.4-0.3   c0.2,0.1,0,0.2-2.1,0.3c-5.4,0-1.8-0.2-5-0.3c-1.3,0.1-4.7,0-4.8,0.3c-1.6,0-1.9-0.1-2.5-0.2c-2.8,0.1-13,0-9.8,0.3h0.3   c-9.1,0.3-18.9-0.2-27.9,0v-0.1c-5.4,0.1-12,0.1-15.8,0.2c-1.6,0-3.8-0.2-3.1-0.3c-4.1,0.1-4.6,0.2-10.5,0   c1.4-0.1,1.7-0.1,1.7-0.1c0.3,0,1,0,2.5,0c-5.3-0.1-6.6-0.2-12.3,0c2-0.2-4-0.3-6.6-0.2l3.8,0.2c-2.9,0-5.4,0-7.9,0l1.4-0.3   c-11-0.4-19.8,0.6-28.1,0c-2.9,0.2,5.9,0.2,3.4,0.4c-5,0-10.3-0.5-11.9-0.5c-6.9-0.2-6.4,0.4-13.7,0.3c0.9,0.1,1.8,0.4-3.6,0.5   c-5,0-6.2-0.5-3-0.5c1.2,0,1.8,0,1.7,0.1c1.6,0,3.8-0.1,1.8-0.2l-0.7,0.1c-2.5-0.1-9.4-0.1-7.8-0.3c-1.8,0-2.2,0.1-1.9,0.1   c-4.7-0.1-8.1,0.1-13.7,0c1.1,0.1,2,0.2,1,0.2c-9.8-0.1-4.3,0.2-10.9,0.2c-3.8-0.2,1.3-0.4-5.3-0.2c-4.1-0.1-0.9-0.3,0.8-0.4   c-6.1,0.2-11.3-0.1-14.8-0.2l3.2-0.1c-1.9,0-3.5,0-5.1,0l1.8,0.2c-1.9,0-3.5,0-3.4-0.1c-1.9,0.1,1.5,0.4-2.4,0.5   c-2.5-0.1-7.6,0.1-8.5-0.2c7.9,0.1-0.9-0.3,5.8-0.3c-1.3,0-2.8,0-4.7,0c-0.3,0,0.3-0.1,0.8-0.1c-7.5-0.2-3.5,0.3-11.3,0.3   c0.8-0.2-0.8-0.3-2.1-0.3c1.7,0.1,0.1,0.3-2.4,0.4c-5-0.1-5.4,0.1-8.1,0.1l3,0.1c-1,0.2-3.5,0.1-7,0.2l0,0   c-3.5,0.1-7.7-0.3-12.3-0.2c-2.5-0.1-0.2-0.3-2.4-0.4c-6.1,0.2-6.6-0.2-12.9,0c1.8,0.2,2.2,0.2-2.3,0.4l10.5-0.2l-6.7,0.3   c3.2,0,6.7-0.1,8.6-0.1c-3.2,0.2-2.9,0.1-1.4,0.3c-4.3-0.3-8.6,0.2-13.6,0l0.2-0.5c-7.5-0.2-13.3,0.3-23.1,0.1l3.1,0.1   c-1.3,0.2-6,0-9.2,0.1c0.3-0.2-1.7-0.2-3-0.3c0.2,0.1-7.1,0-8,0.3l-4.3-0.2c-7.9-0.1-9,0.5-16.6,0.5c2.3-0.2-1.2-0.3,3.9-0.5   c-2.5,0-4.8,0-4.8,0.1c-1.5-0.1-7,0.2-9.3,0.1c-1.1,0.1-1.4,0.3-4.2,0.2c-0.3,0,0-0.1,0-0.1c0,0.1-4.4,0.1-2,0.3   c-7.8-0.5-21.8,0-28.5-0.4c-5.5,0.1-12.2,0.1-17.2,0.1c0.3,0,0-0.1,1-0.1c-6.9-0.2-4.2,0.5-12.1,0.3c-4-0.3,4.2-0.2,1.7-0.3   c-1.1-0.6-9.5,0.1-14.8-0.3h1.3c-4-0.2-9.9,0.2-16.5,0.2c0,0,0.3,0,0-0.1c-4.5,0.3-13.1,0.4-19.4,0.5c2-0.2,2.9-0.1,1.7-0.3   c-2.8,0,0.8,0.4-4.8,0.4c-1.8-0.1-5.9-0.2-6.5-0.5h5.4c-2.8-0.3-6.9,0-9.8-0.1l0.4-0.1c-8.2,0-8.3,0.4-17.2,0.4l0.9,0.1   c-4.8,0.3-4-0.2-8.9,0.1l-1.5-0.4c-3.2,0.1-11.2,0.3-16.9,0.4c3.2-0.3,9.9-0.4,14.1-0.5c-3.2,0-10.7,0-12.4,0.2   c1.3,0,2.9-0.1,4.1-0.1c-3.9,0.3-9,0.4-15.2,0.4c1.1-0.7-16.4-0.2-21-0.7c-11.1,0.2-22.1-0.1-35-0.1c4.6,0.5-3.8,0-3,0.6   c-3,0-4.2,0-4.4,0l-9.2-0.3c-2.2-0.2,2.9-0.1,2.6-0.2c-6.6,0-2.8-0.2-7.2-0.4c0.9,0.2-2.3,0.3-6.1,0.2l5.3,0.2   c-9.2,0.3-8-0.5-17.3-0.2l2.9-0.2c-4.8,0.1-17.6,0-22.3,0.4c-0.8-0.1-2-0.2,0.1-0.2c-11.4-0.1-25.4,0.5-34.3,0.2l0.9-0.1   c-2.1,0-3.7,0.2-6.4,0.1c0.1-0.1,0.9-0.1-0.1-0.1c-1.1,0-5.7,0.2-8.5,0.2l2.4-0.2c-11.1-0.2-17.1,0.4-26.4,0.5   c0-0.4-8.7-0.5-13.1-0.6l0.2-0.1c-13,0-22,0.3-34,0.5c-7.5-0.4-25.2-0.2-37.2-0.4c1.8,0.1-0.3,0.3-2.4,0.3   c-2.8-0.1-7.8,0.3-7.3-0.1h1c-2.1-0.3-7.9-0.2-12.4-0.3l-0.7,0.5c-11.8-0.7-30.9,0.2-37.4-0.4c-2.8,0.1-6.4,0.1-9.2,0.2l0.2-0.2   c-7.9-0.1-11.8-0.1-21.6,0l2-0.2c-5.5,0-7,0.7-12,0.8l-1.5-0.4c-9.6,0-19.3-0.3-28.8,0c0.2-0.1,0.4-0.2,2-0.2   c-4.4,0-16.9-0.3-15.9,0.3c-0.9-0.2-10.1,0-15,0.1l0.8-0.2c-4.4,0.3-4.5,0.4-10.6,0.5c-1,0-1.2-0.1-0.6-0.1   c-3.3,0-3.1,0.2-8.3,0.1l2.2-0.2c-5,0-4.6,0.1-7.3,0.2c-3.1,0.1-9.4-0.1-10.2-0.3c-0.7,0.1-3.4,0.3-6.3,0.3   c-0.4-0.1,0.7-0.1,1.2-0.2c-8.3-0.2-12.3,0.3-18,0c-0.1-0.1-0.5-0.1-1-0.2c6.1,0,11,0,11.4,0c0-0.2-5.3-0.3-1.1-0.6   c-4.3,0.2-11.6,0.5-16.8,0.4c-0.2,0-0.5,0-0.7-0.1c-1,0-1.9,0-2.8,0c-1.7,0-2.7-0.1-4.3-0.1c-0.6-0.2-6.1-0.1-8.8-0.1   c0.2,0.2-3.3,0.2,0,0.4c0.2,0,1.1,0,2.3,0c0.3,0,0.7,0,0.9,0c0.1,0,0.1,0,0.2,0c1.7,0,3.9,0,6.4,0c-2.1,0.1-4.3,0.2-7.2,0.1   c-1.4,0.2-2.9,0.3-3.7,0.4c-3.6-0.3-10.6-0.5-11.6-0.8c-8.1,0.1-19.1,0.1-24.2,0.6c-2.3,0.1-2.6-0.1-3.5-0.2c1.3,0,2.9,0,3.6-0.1   c-4.6,0.1-13.7,0-14.8,0.4c-5.8-0.2,3.3-0.3-4.7-0.2l1.1-0.1c-15.4-0.5-25.1,0.7-42,0.2c0.5,0,0.9,0.1,1.1,0.1   c-19.9-0.3-40.9,0.3-60.5-0.2c-5.6-0.1-6.2,0.1-9.6,0.3l-1.2-0.3l-6.5,1.8c-8.2,0.2-14.3-0.7-24.7-0.2l1.4,0.2   c-3.8,0-11.9,0.1-11.2-0.1c-0.4,0-1.2,0.2-2.7,0.1l-0.1-0.1l-9.2,0.2c-7.1-0.1,1.1-0.6-9.3-0.6c-3.9,0-11,0.4-9.6,0.5   c0.2,0,0.4,0,0.7,0l-0.8,0.2h0.7c0.1-0.1,0.1-0.1,0.1-0.2c1.5,0,3.3,0.1,3.4,0.2l-3.5,0.1c-0.6,0.4-3.4,0.8,5.3,1.1l6-0.3l2,0.2   c0.6,0,1.1-0.1,1.7-0.1c0.5,0.1,1.3,0.2,2.5,0.2l5.9-0.4c0.7,0.2-2.7,0.3,1.3,0.4c2.8-0.2-2.7-0.4,1.9-0.5c2.9,0.2,2,0.3,5.5,0.2   c0.3,0.1,0.1,0.1-0.5,0.2c3-0.1,7.1,0,8.5-0.3c3,0.2,10.2-0.1,9.9,0.3c1-0.1,5.3-0.3,8.1-0.3c-5.1,0.5,10.4,0,9.1,0.5   c3.8-0.4,13.6-0.2,20.2-0.4c-0.4,0-1.1,0.1-1.7,0.1c3.8,0,4.8,0.2,7.2,0.2c0.5-0.3,6.3-0.4,9.5-0.7c4.6,0.3-2.8,0.4-1.4,0.7   c-0.2-0.3,8-0.3,6.4-0.5c3.5,0.2,3,0.1,4.8,0.4c0.6-0.4,3.3-0.1,6.2-0.3c5.1,0.2,1.3,0.4,6.9,0.3c2.7,0.1-2.3,0.3-2.3,0.3l0.2,0.1   c5.7,0,2.7-0.3,3.9-0.5c6.8-0.1,3.1,0.2,5.5,0.4c4.2-0.1,7.5-0.4,10.6-0.4c0.1,0,0.5,0.1,0.5,0.1c4.6-0.3,13.1,0,18.1-0.3   c0.4,0,0.6,0.1,0.7,0.1c-0.9-0.2-1-0.3-0.8-0.5c2.5,0,4.7-0.2,5.7,0c-1.6,0-1.7,0.1-2.4,0.2l2.7-0.1c2.4,0.3-3.6,0.1-3.6,0.3   c5.2-0.1,11.3-0.4,15.3-0.3c0.8,0.3-9.3,0.1-4,0.4l-6.2-0.1c4.7,0.5-3.8,0,0.6,0.5c8.1,0.1,9.1-0.2,17.2-0.1   c1.8-0.2-0.6-0.2,1.2-0.4c11.5-0.3,9.1,0.8,17.5,0.4c2.2-0.2,3-0.6,9.1-0.4l-2.1,0.3c7.9,0,4.5-0.5,12.7-0.3   c-1.5,0.1-6.2,0.1-5,0.2c5.3,0.3,3.8-0.2,7.9-0.2l0.9,0.3c8.4,0,17.6-0.3,26.9-0.3c-0.5,0.1-2.1,0.2,0.1,0.3   c11.7-0.2,25,0,36.3,0.2l4.3-0.3c1,0,1.9,0.1,0.8,0.2c4.4,0.1,0.2-0.2,2.3-0.3c2.1,0,3,0.1,2.3,0.2c7.9-0.2,21.7-0.5,29.7-0.2   l-1.6,0.1c6.4,0.1,7.2-0.5,13.1-0.3h-1.1c13.8,0.1,29.1-0.1,39.6,0.3c2-0.4,13.7,0.2,14.6-0.4c7.9,0.3,5.6,0.4,16.7,0.5   c3,0,4.4-0.3,8.1-0.4l0.1,0.3l5-0.3l2.7,0.3l3.4-0.1c-1.4,0-2.9-0.1-2.7-0.2c5.4-0.1,13.1,0.2,13.2,0.3l12.7-0.2   c-0.1,0-0.5,0.1-1.1,0.1c1.9,0-0.4,0.3,4.5,0.1c-0.8-0.1,0.5-0.2,0.6-0.2c3.1,0.2,10.2,0.2,15.4,0.1l-1,0.2   c9.4,0,19.9-0.1,30.5-0.1c-3.8-0.1-2.9-0.4,0.2-0.5l1.2,0.3c2-0.2-3.2-0.1,0.9-0.3c4,0,2.7,0.3,0.4,0.4l4.8-0.1   c0.3,0.1-0.8,0.1-1.1,0.2c2-0.2,8.3,0.3,11.2,0l0.3,0.1c10.6,0,15.4-0.1,24-0.1c0.2-0.2,3.5-0.2,6.1-0.4c6.3,0.1,13.4,0.3,21,0.3   c5.4-0.1,1.6-0.2,4-0.4c0.4,0.2,8,0.2,4.1,0.4c9.2,0,11.7,0,23.3-0.2c-1.3-0.1-2.7-0.1-1.9-0.2c2,0,4.6,0.1,4.5,0.2   c12.9-0.3,29.6,0.7,39.9,0.2h-0.6l10.7-0.2c4.9,0-3,0.2,0.7,0.3c11.6-0.4,18.3,0.1,27.8-0.2c7.4,0.7,26.2,0,36.2,0.4l-0.6-0.2   c2.6-0.2,3.1,0.1,5,0.1c-0.3-0.1-2.8-0.1-1.2-0.2c21.8-0.2,45,0.2,67.4,0.4c8.2,0,4.6-0.8,15-0.5l-2.9,0.3   c16.5-0.4,33.8,0,49.9-0.3c-1,0.1-1,0.2-2.6,0.2c3.4,0.2,12.6,0,12.7-0.2c2.5,0,0.6,0.2,2.1,0.2c3.4,0.1,8.6-0.3,10.4-0.1   c0.2,0-0.4,0.1-1,0.1c2.8-0.1,9.6,0,7.7-0.2c6.1,0.1,11.6-0.1,16.4,0c3.2-0.3,10.4,0.1,11.4-0.3c-0.4,0.4,10.6,0.3,14.5,0.1   c-1.3,0.1,3.3,0.1,1.8,0.3c4.4,0,8.4-0.1,7.6-0.3c8.1,0.5,16.2-0.4,20.8,0.2c13-0.2,25-0.4,36.7-0.5c-0.4,0.4-12.9,0-12.4,0.5   c11.1-0.2,17.5-0.5,28.5-0.4c2.1,0.1,0.1,0.2-1.4,0.2c10.6-0.2,20.6,0,30.1-0.2c0,0-1.1,0.1-2.1,0.1c1.9,0,4.5,0.1,4.3-0.1h-1.9   c-3.1-0.3,7.7-0.6,8.1-0.7c-3.3,0.5,9.8,0.1,4.5,0.8c1.3,0,2.9-0.1,2.6-0.2c1.9,0,2.5,0.1,0.6,0.2c7-0.1,4.5-0.3,10.8-0.3   c0,0.1-1.3,0.1-1.9,0.2c3.2-0.2,6.4-0.3,11.7-0.3c-0.3,0,0.3,0.1-1.3,0.1c9.2,0,15.6-0.5,25.7-0.3c-3,0.4,3.4,0.1,3.9,0.5l5.4-0.1   l-2.2-0.2c4.7,0,8.9-0.2,13-0.1l-3.5,0.1l8.9-0.1l-5-0.1c4.8-0.2-0.5-0.4,5.8-0.3c-1.3,0,4.7,0,7.2,0.2c2.3-0.1,4.8-0.2,8.2-0.1   c0.9,0.1-0.7,0.4-0.1,0.4c2.3-0.3,11.1-0.1,14-0.4c-1,0.1-1,0.2-0.7,0.3l1.9-0.2c2.2,0.1,2.5,0.1,2.2,0.2c6.6,0-2.1-0.4,5.7-0.2   c-0.6,0-0.3,0-1.6,0.1c7.9,0.1,15.2-0.1,22.4,0c2.1,0.3-6.3,0.1-3.9,0.4c9.8-0.1,20.2-0.4,29.8-0.3c1.5-0.5,7.5,0.2,12.6,0   c-1.2,0-1.6,0.3-1.3,0.2c6.9,0.1,14.1-0.1,24.6-0.3l-1.3,0.1c4.1,0.1,10.7,0.1,15.1,0.1c1.3-0.1,3.8-0.1,2.3-0.3   c13.6,0.7,25.8-0.4,37.9,0.2c-1.4,0-3.4,0.1-2.3,0.1l10.2-0.1c-0.8-0.2-1.3-0.1-3.5-0.3c1.3-0.1,4.2-0.2,6.7-0.2   c-4.6,0.1,0,0.3,2,0.5c-0.3-0.1,0.3-0.1,0.2-0.2c5.3,0.4,0.9-0.4,8.2-0.2l-0.4,0.1c2.7-0.1,5.2-0.2,8.2-0.2   c1.2,0.2-2.9,0.1-3.1,0.3c4.1,0,8.2-0.5,11.9-0.2c-1.8,0.1-4.3,0.1-6,0.1c4.1,0.3,4.6,0.2,7.6,0.3h-0.3l7,0.1l-1.8-0.1   c5.2-0.6,10.6-0.1,17.5-0.5c-6.8,0.4-1.1,0.2-1.6,0.5c1.5,0.1,3.7,0.2,3.8,0.2c3.2-0.2,5.4,0.2,10.1-0.2c0.2,0.1,3.5,0,2.8,0.2   c4.3-0.1-1-0.2-0.7-0.3c6.6-0.3,15.5,0.4,25,0c8.2-0.2,9.7-0.5,17.3-0.6c2.6,0.1-2.1,0.3-2.1,0.3c4.1,0.1,7.3,0.1,11.2,0   c-0.8,0.1,0,0.1,1.2,0.2c3.1,0,2.1-0.3,6.2-0.2c-0.7,0.1-1.6,0.2-3.1,0.3c3.7-0.1,7.3-0.2,11.2-0.3c1,0.2-2.3,0.2-3.7,0.3   C1701.2,537.9,1708,537.9,1709.4,537.6z M499.6,537.2h-0.2c0.2,0,0.4-0.1,0.7-0.1c1.8,0,2.4,0,2.6,0.1   C501.9,537.2,500.9,537.2,499.6,537.2z M518.9,538.8c-0.4-0.1,0-0.2,1.2-0.2c-0.7,0.1,2,0.2,3.6,0.2   C522.3,538.8,520.7,538.8,518.9,538.8z"></path>		<path class="st12" d="M1707.3,537.5c-0.1,0-0.4,0-0.7,0H1707.3z"></path>		<path class="st12" d="M1301.3,535.6c-0.1,0-0.2,0-0.3,0C1301.1,535.6,1301.2,535.6,1301.3,535.6z"></path>		<path class="st12" d="M398.1,536.2c-0.3,0-0.6,0-1,0C397.5,536.2,397.8,536.2,398.1,536.2z"></path>		<path class="st12" d="M269.8,539.2h-5C266.9,539.3,268.4,539.2,269.8,539.2z"></path>		<path class="st12" d="M566,536.2c0.4,0,0.8,0,1.3,0C566.8,536.2,566.3,536.2,566,536.2z"></path>		<path class="st12" d="M1289.4,536.3L1289.4,536.3C1289.7,536.3,1289.9,536.3,1289.4,536.3z"></path>		<path class="st12" d="M1302,535.6c-0.2,0-0.4,0-0.7,0C1301.5,535.6,1301.8,535.6,1302,535.6z"></path>		<path class="st12" d="M1287.5,536.3c0.6,0,1.2,0,1.8-0.1C1288.7,536.3,1287.7,536.3,1287.5,536.3z"></path>		<polygon class="st12" points="677.8,539.3 677.8,539.2 676.8,539.3   "></polygon>		<path class="st12" d="M1570.8,538.7c-0.5-0.1-0.7-0.1-0.8-0.1C1570.4,538.7,1570.7,538.7,1570.8,538.7z"></path>		<path class="st12" d="M1600.3,538.8c-1.7-0.1-2.9-0.1-3.8-0.1L1600.3,538.8z"></path>		<path class="st12" d="M1617.3,538.7l-0.4,0.1C1617.2,538.8,1617.2,538.7,1617.3,538.7z"></path>		<path class="st12" d="M1292.4,539.1c-0.3,0-0.6,0-0.8,0C1289.7,539.2,1291,539.2,1292.4,539.1z"></path>		<path class="st12" d="M1389,538.5c-1,0-2,0.1-3.1,0.1C1387.6,538.7,1388.9,538.7,1389,538.5z"></path>		<path class="st12" d="M1381.4,538.7c1.7,0,3.2,0,4.5,0C1384.4,538.6,1382.8,538.6,1381.4,538.7z"></path>		<path class="st12" d="M1709.9,538.8l-2.3,0.1C1708.4,538.9,1709.4,538.9,1709.9,538.8z"></path>		<path class="st12" d="M1678.4,538.8l-0.3,0.1C1678.2,538.9,1678.3,538.9,1678.4,538.8z"></path>		<path class="st12" d="M1670.2,538.9c2,0,4.9,0.2,7.7,0.1l0.3-0.1C1676.8,539.1,1672,538.7,1670.2,538.9z"></path>		<polygon class="st12" points="1433.7,538.9 1435,538.7 1430.9,538.8   "></polygon>		<line class="st0" x1="255.9" y1="538.1" x2="1730.4" y2="538.1"></line>	</g>	<path id="_x31__00000139990338176120374530000017800281459797458355_" class="st11" d="M400.2,278.7  c102.5-64.2,223.9-97.7,342.2-117.2c147.1-24.2,298.7-26.4,446.6-7.7c124.2,15.7,250.7,45.9,361.7,105.5  c71.5,38.4,150.8,97.1,168.1,181.7c2,9.9,3.1,19.9,3.1,30c0-0.2,0-0.5,0-0.7c-0.3-83.4-65.3-147.1-130.8-189.6  c-102.5-66.5-225.3-100.9-344.7-121c-150.2-25.3-305.2-27.4-456.1-7.8C665,168.2,536.9,199.2,425.7,261.1  c-71.4,39.7-150.5,101.2-162.1,188c-0.9,7-1.3,14.1-1.4,21.2c0.1,0.8,0.1,2.4,0.1,0.7C262.6,385.7,333.2,320.6,400.2,278.7z"></path></g><g id="Text_00000167367628464745033380000007548398131002818751_">	<g id="Partners_00000057148212159200259290000013020123818814401695_">		<path id="_x26__00000169521066462283950240000013709390083376718500_" class="st11" d="M642.4,691.8c3.4,0,6.5-0.4,9.4-1   c2.8-0.8,5.5-2.1,8.2-3.9c2.4-1.7,4.9-3.8,7.6-6.5c2.4,2.4,4.5,4.4,6.2,6c2.1,1.9,4.2,3.2,6.2,4.1c2.1,0.9,4.4,1.3,7.2,1.3   s5.4-0.5,7.9-1.5c2.5-1.1,4.7-2.7,6.6-4.8s3.4-4.6,4.5-7.6l-2.1-1.4c-1.6,2.5-3.4,4.3-5.4,5.4c-1.9,1.1-4.2,1.6-6.8,1.6   c-3.5,0-6.7-1.2-9.4-3.4c-2.4-1.9-5-4.5-7.9-7.7c2.1-2.9,3.9-5.5,5.4-7.7c1.7-2.4,3.3-4.9,4.7-7.2c1.5-2.3,3-5,4.8-8   c1.4-2.4,3-4.2,4.7-5.2s4.1-1.5,7.2-1.5v-3.9h-27.6v3.9c3,0,5,0.4,6.1,1.2s1.7,2.1,1.7,3.9c0,1.9-0.4,3.8-1.1,5.8   s-1.8,4.3-3.4,7.1c-1.4,2.3-3.1,5.1-5.3,8.5c-1.7-2-3.5-4.3-5.3-6.9c-2.4-3.3-4.8-6.9-7.2-10.7c-1.8-2.8-3.4-5.6-5-8.4   c6.8-3.1,11.6-6.2,14.4-9.2c3-3.2,4.5-7.1,4.5-11.6c0-5.1-1.6-8.8-4.9-11.4s-7.2-3.8-11.8-3.8c-5.9,0-10.6,1.5-14.2,4.5   s-5.4,7-5.4,11.8c0,3.6,0.6,7,1.8,10.1c1,2.8,2.6,6.3,4.9,10.5c-5.2,2.9-9.4,5.7-12.7,8.4c-3.6,2.9-6.2,5.9-7.8,9.1   c-1.6,3.1-2.4,6.7-2.4,10.6c0,6.3,1.9,11.2,5.6,14.5C630,690.1,635.4,691.8,642.4,691.8z M649,614c1.8-1.9,4.2-2.8,7.3-2.8   s5.5,1.1,7.2,3.2c1.7,2.1,2.5,4.7,2.5,7.9c0,2.4-0.4,4.7-1.3,6.8c-0.9,2.1-2.4,4.1-4.6,5.9c-1.8,1.6-4.4,3.2-7.6,4.8   c-1.8-3.5-3.3-6.9-4.4-10c-1.2-3.3-1.8-6.2-1.8-8.6C646.3,618.2,647.2,615.8,649,614z M635.6,657.2c2.1-3.2,5.5-6.2,10-9.1   c2.1,3.9,4.3,7.7,6.6,11.3c2.7,4.4,5.3,8.3,7.7,11.7c1.8,2.4,3.3,4.5,4.7,6.2c-3.3,3-6.2,4.8-8.7,5.7c-2.8,0.9-5.7,1.4-8.9,1.4   c-3,0-5.7-0.6-7.9-1.6c-2.2-1.1-3.9-2.7-5.1-4.9c-1.2-2.2-1.8-5.1-1.8-8.6C632.2,664.7,633.3,660.6,635.6,657.2z"></path>		<path id="P_00000047757852962243048840000001018017794480356747_" class="st11" d="M779.6,653.9c1.4,0.1,2.8,0.2,4,0.2   c4.1,0,8.1-0.4,12-1.2c4-0.8,7.5-2.2,10.6-4.2s5.6-4.6,7.4-7.9c1.9-3.3,2.8-7.4,2.8-12.2c0-4.2-0.9-7.6-2.6-10.3s-4-4.8-6.9-6.3   s-6.2-2.6-9.9-3.2c-3.7-0.6-7.6-0.9-11.6-0.9h-31.1v3.8c4,0,6.8,0.5,8.3,1.6s2.3,3.4,2.3,7.1v53.8c0,3.5-0.3,6.1-0.8,7.8   s-1.5,2.8-3.1,3.4c-1.5,0.6-4,0.9-7.2,0.9v3.8H789l0,0h0.2v-4c-3.4,0-6-0.3-7.8-0.8c-1.8-0.4-3.1-1.5-3.8-3.2   c-0.7-1.6-1.1-4.2-1.1-7.6v-21.4C777.1,653.5,778.2,653.7,779.6,653.9z M776.4,648.6v-35.4c1.3-0.2,2.6-0.3,3.8-0.4   s2.5-0.1,3.7-0.1c6.8,0,11.8,1.6,15.1,4.6c3.3,3.1,4.9,7.4,4.9,13.1c0,4.8-0.8,8.6-2.4,11.3c-1.6,2.8-3.9,4.7-7,5.8   s-6.9,1.7-11.4,1.7c-1.3,0-2.5-0.1-3.8-0.3C778,648.8,777.1,648.7,776.4,648.6z"></path>		<path id="A_00000069360469014549821480000012353740212167338933_" class="st11" d="M876.6,684.8c-0.9,0.6-2.1,1-3.4,1.2   c-1.4,0.1-2.7,0.2-3.9,0.2v3.8h33.6v-3.8c-3.4,0-5.9-0.8-7.6-2.5c-1.7-1.6-3.5-4.5-5.3-8.6l-29.6-67.9h-5.1L828.8,670   c-2,4.8-3.7,8.3-5,10.6s-2.7,3.8-4.1,4.6c-1.4,0.7-3.3,1.1-5.6,1.1v3.8h26.2l0,0h0.1v-3.9c-2.9,0-5.1-0.3-6.4-0.8s-2-1.6-2-3.4   c0-1.2,0.1-2.2,0.4-3.2c0.3-0.9,0.6-1.9,0.9-2.9l5.6-13.2h32.2l4.8,11.2c0.8,1.9,1.4,3.4,1.7,4.6s0.4,2.3,0.4,3.2   C878,683.1,877.5,684.1,876.6,684.8z M855.4,622.7l13.7,35h-28.3l14.2-35H855.4z"></path>		<path id="R_00000168088698585314425730000014131459435252870287_" class="st11" d="M940.1,652.3c2.2,0,3.9,0.2,4.9,0.6   s2.2,1.6,3.4,3.5c1.3,1.8,2.6,3.7,3.8,5.5s2.6,3.9,4.2,6.3c1.6,2.4,3.5,5.3,5.8,8.8c2.3,3.4,5.2,7.7,8.6,12.9h20.6v-3.8   c-2.9,0-5.2-0.4-7.1-1.1s-3.8-2.4-5.8-5.2c-4.6-6.6-8.3-11.8-11.1-15.8s-5.1-7-6.9-9s-3.4-3.5-4.8-4.3v-0.5   c3.4-0.8,6.7-2.1,9.9-3.7s5.9-3.9,8-6.8c2.1-2.9,3.2-6.7,3.2-11.4c0-5.3-1.3-9.4-4.1-12.4c-2.7-2.9-6.5-5-11.4-6.2   s-10.5-1.8-16.7-1.8h-30.8v3.7c3.4,0,5.8,0.3,7.4,0.9c1.6,0.6,2.6,1.6,3.1,2.9s0.7,3.2,0.7,5.5v53.6c0,3.6-0.3,6.1-0.8,7.8   c-0.6,1.6-1.6,2.7-3.2,3.2c-1.6,0.6-3.9,0.8-7.1,0.8v3.8H949v-3.9c-3.6,0-6.3-0.3-8-0.8s-2.9-1.6-3.5-3.3s-0.9-4.3-0.9-7.7v-22.1   H940.1z M936.6,647.6L936.6,647.6L936.6,647.6l0.1-34.3c1.3-0.2,2.7-0.3,4.1-0.3c1.4-0.1,2.8-0.1,4.1-0.1c6.8,0,11.7,1.4,14.8,4.3   c3.1,2.9,4.6,6.8,4.6,11.8c0,4.4-1,7.9-2.9,10.6s-4.6,4.7-8,5.9s-7.4,2-12,2.2L936.6,647.6z"></path>		<path id="T_00000064336371076025234700000006809980036143764370_" class="st11" d="M1043.5,613.6c4.7,0,8.2,0.5,10.4,1.4   c2.3,0.9,3.9,2.6,4.9,5s2,5.9,2.9,10.5h3.9l-1-22.5h-69.1l-1.4,22.5h3.9c0.9-4.6,1.9-8.1,2.9-10.5s2.6-4.1,4.9-5s5.7-1.4,10.3-1.4   h8v60.1c0,3.7-0.3,6.5-0.9,8.3s-1.7,3-3.5,3.5s-4.4,0.8-7.9,0.8v3.8h36.2v-3.8c-3.6,0-6.2-0.3-8-0.8c-1.7-0.5-2.9-1.7-3.5-3.5   s-0.9-4.5-0.9-8.3v-60.1H1043.5z"></path>		<path id="N_00000121990268000182510170000008497475642423393451_" class="st11" d="M1154.5,613.4c1.6-1.1,4-1.7,7.2-1.7v-3.8   h-29.5v3.8c3.6,0,6.2,0.5,7.9,1.6c1.6,1.1,2.7,2.8,3.2,5.1c0.6,2.4,0.8,5.5,0.8,9.4v40.5h-0.6l-46.2-60.4h-21.2v3.7   c1.9,0,3.5,0.2,4.8,0.6s2.6,1.1,3.8,2.2c0.9,0.9,2,2,3.2,3.6v53.4c0,4.2-0.3,7.3-0.9,9.5s-1.7,3.6-3.4,4.3   c-1.7,0.7-4.2,1.1-7.5,1.1v3.8h29.2l0,0h0.1v-3.9c-3.1,0-5.4-0.3-7.1-1.1c-1.7-0.7-2.8-2.2-3.4-4.3s-0.9-5.2-0.9-9.4v-47.2h0.6   l51.8,66.9h4v-62.6c0-4,0.3-7.2,0.8-9.7S1152.8,614.5,1154.5,613.4z"></path>		<path id="E_00000031911126710324957730000000373498653584014221_" class="st11" d="M1185.9,682.5c-0.6,1.6-1.8,2.6-3.5,3.1   s-4.3,0.7-7.7,0.7v3.8h66.8l3.4-23.3h-4c-1.3,3.7-2.5,6.8-3.6,9.1c-1.1,2.4-2.5,4.2-4.2,5.4c-1.7,1.3-4,2.1-7,2.6   s-6.9,0.7-11.7,0.7h-16.1v-34.4h14.6c3.9,0,6.8,0.4,8.8,0.8s3.3,1.5,4.1,3.2c0.7,1.6,1.1,4.2,1.1,7.6h4v-29h-4   c0,3.4-0.3,6-1.1,7.8c-0.7,1.9-2.1,3.1-4.1,3.8s-5,1-8.8,1h-14.6v-31.8h18.4c5.2,0,9.1,0.3,11.8,1.1c2.7,0.7,4.7,2.2,5.9,4.3   c1.2,2.1,2.1,5.2,2.7,9.4h4l-0.8-20.5h-65.6v3.8c3.4,0,6,0.3,7.7,0.9c1.7,0.6,2.9,1.7,3.5,3.4c0.6,1.6,0.9,4,0.9,7.2v52.1   C1186.8,678.5,1186.5,680.9,1185.9,682.5z"></path>		<path id="R_00000057110337195525463330000017975301672773115531_" class="st11" d="M1285.1,652.3c2.2,0,3.9,0.2,4.9,0.6   s2.2,1.6,3.4,3.5c1.3,1.8,2.6,3.7,3.8,5.5s2.6,3.9,4.2,6.3c1.6,2.4,3.5,5.3,5.8,8.8c2.3,3.4,5.2,7.7,8.6,12.9h20.6v-3.8   c-2.9,0-5.2-0.4-7.1-1.1s-3.8-2.4-5.8-5.2c-4.6-6.6-8.3-11.8-11.1-15.8c-2.8-4-5.1-7-6.9-9s-3.4-3.5-4.8-4.3v-0.5   c3.4-0.8,6.7-2.1,9.9-3.7s5.9-3.9,8-6.8c2.1-2.9,3.2-6.7,3.2-11.4c0-5.3-1.3-9.4-4.1-12.4c-2.7-2.9-6.5-5-11.4-6.2   s-10.5-1.8-16.7-1.8h-30.8v3.7c3.4,0,5.8,0.3,7.4,0.9c1.6,0.6,2.6,1.6,3.1,2.9s0.7,3.2,0.7,5.5v53.6c0,3.6-0.3,6.1-0.8,7.8   c-0.6,1.6-1.6,2.7-3.2,3.2c-1.6,0.6-3.9,0.8-7.1,0.8v3.8h35.1l0,0v-3.9c-3.6,0-6.3-0.3-8-0.8s-2.9-1.6-3.5-3.3s-0.9-4.3-0.9-7.7   v-22.1H1285.1z M1281.6,647.6L1281.6,647.6L1281.6,647.6l0.1-34.3c1.3-0.2,2.7-0.3,4.1-0.3c1.4-0.1,2.8-0.1,4.1-0.1   c6.8,0,11.7,1.4,14.8,4.3c3.1,2.9,4.6,6.8,4.6,11.8c0,4.4-1,7.9-2.9,10.6s-4.6,4.7-8,5.9s-7.4,2-12,2.2L1281.6,647.6z"></path>		<path id="S_00000034059437218378803370000011191517021764682905_" class="st11" d="M1350.2,691.9c0.1-1.2,0.5-2.2,0.7-3.1   c0.6-0.7,1.4-1.1,2.2-1.1c1,0,2.3,0.3,3.8,0.9c1.6,0.7,3.7,1.3,6.4,1.9c2.7,0.6,6.3,0.9,10.6,0.9c4.8,0,9.2-0.9,13-2.6   c3.9-1.7,6.9-4.3,9.1-7.6s3.3-7.4,3.3-12.2c0-3.7-0.7-6.9-2.1-9.6s-3.2-5-5.5-7s-4.8-3.8-7.6-5.4s-5.5-3.2-8.3-4.8   c-3.1-1.9-6.1-3.6-8.9-5.4c-2.9-1.7-5.1-3.7-6.9-5.9c-1.7-2.2-2.6-4.8-2.6-7.9c0-3.9,1.2-6.8,3.5-8.8c2.4-1.9,5.7-2.9,9.9-2.9   c6.4-0.1,11,1.6,13.9,4.9c2.9,3.4,5.2,8.5,7,15.4h3.8l-0.9-25h-3.2c-0.3,1.3-0.8,2.3-1.4,2.8s-1.4,0.8-2.4,0.8s-2.1-0.3-3.3-1   c-1.2-0.6-2.8-1.3-4.9-1.9c-2.1-0.6-5.1-0.9-8.9-0.9c-4.4,0-8.3,0.8-11.9,2.4s-6.4,3.8-8.6,6.8c-2.1,3-3.2,6.7-3.2,11.1   c0,4.3,0.9,8,2.9,11s4.5,5.6,7.6,7.8c3.1,2.1,6.3,4.2,9.6,6.1c3.4,1.9,6.7,3.8,9.9,5.7c3.2,1.8,5.8,4,7.8,6.4   c2.1,2.4,3.1,5.4,3.1,9.1c0,3.2-0.7,5.7-1.9,7.7c-1.2,1.9-3,3.3-5.2,4.2s-4.9,1.3-8.1,1.3c-4.2,0-7.8-0.6-10.8-1.7   c-2.9-1.1-5.4-3.2-7.4-6.2c-2-3.1-3.7-7.4-5.2-13.2h-3.9l1.1,27H1350.2z"></path>	</g>	<g id="Gross_00000027586116925510755320000005899117509021519804_">		<path id="G_00000154416868995685494330000003000207506183148932_" class="st11" d="M1252.8,437.3c0-4.5,0.6-7.5,1.9-8.9   s3.9-2.1,8-2.1v-4.6h-35.8v4.6c3.7,0,6.5,0.3,8.3,0.9s3,1.8,3.6,3.6s0.9,4.4,0.9,7.9v15.7c-2.9,2.1-6,3.8-9.1,5.2   c-3.1,1.3-7,2-11.5,2c-10.3,0-18.5-3.6-24.4-10.9s-8.9-18.3-8.9-33.1c0-12.8,2.8-23,8.5-30.5s13.7-11.2,23.9-11.2   c7.7,0,14.1,2,19,6.2c5,4.1,8.3,11,9.9,20.7h4.9v-33.2h-4.2c-1,1.6-1.8,2.8-2.4,3.8s-1.5,1.5-2.8,1.5c-1.1,0-2.6-0.4-4.4-1.3   s-4.3-1.7-7.4-2.6c-3.2-0.9-7.4-1.3-12.7-1.3c-9.1,0-17.2,1.9-24.3,5.7s-12.7,9.4-16.8,16.8c-4.1,7.4-6.2,16.5-6.2,27.2   c0,15.4,3.9,27.4,11.7,36c7.8,8.5,19.3,12.8,34.7,12.8c8.1,0,14.7-0.9,19.8-2.7c5.3-1.8,10.6-4.2,15.8-7.2V437.3z"></path>		<path id="R_00000147205214950944192950000014091383288398363554_" class="st11" d="M1370.1,466.5v-4.3c-3.3,0-6.1-0.4-8.2-1.3   s-4.4-2.9-6.7-6.1c-5.3-7.6-9.6-13.7-12.9-18.3c-3.2-4.6-5.9-8-8-10.4s-4-4-5.6-5v-0.6c3.9-1,7.8-2.4,11.5-4.3s6.8-4.5,9.3-7.9   s3.7-7.8,3.7-13.2c0-6.2-1.6-11-4.8-14.4s-7.6-5.8-13.3-7.2c-5.7-1.4-12.2-2.1-19.4-2.1H1280v4.3c3.9,0,6.8,0.3,8.6,1   c1.9,0.6,3.1,1.8,3.6,3.3c0.5,1.6,0.8,3.7,0.8,6.4v62.2c0,4.1-0.3,7.1-0.9,9c-0.6,2-1.9,3.2-3.7,3.8c-1.9,0.6-4.6,0.9-8.3,0.9v4.3   h40.7h0.2v-4.4c-4.2,0-7.2-0.4-9.3-0.9s-3.4-1.8-4.1-3.8s-1-4.9-1-8.9v-25.7h4.1c2.6,0,4.5,0.2,5.7,0.7s2.5,1.9,4,4.1   c1.4,2.1,2.8,4.3,4.3,6.4c1.4,2.1,3.1,4.5,4.9,7.3c1.8,2.7,4,6.1,6.7,10.1c2.6,4,5.9,9,9.9,15H1370.1z M1311.9,417.4l-5.5-0.1   h-0.1v-39.8c1.6-0.2,3.2-0.4,4.8-0.4c1.7-0.1,3.3-0.1,4.8-0.1c7.8,0,13.5,1.7,17.1,5s5.4,7.9,5.4,13.7c0,5.1-1.1,9.2-3.3,12.3   s-5.3,5.3-9.3,6.8C1321.9,416.2,1317.2,417.1,1311.9,417.4z"></path>		<path id="O_00000085220250744049988300000016229575303623513784_" class="st11" d="M1425.7,468.4c9.6,0,17.8-2.1,24.6-6.4   c6.9-4.3,12.2-10.2,15.9-17.8c3.7-7.6,5.6-16.5,5.6-26.6c0-9.6-1.8-18-5.5-25.2s-8.9-12.8-15.8-16.8s-15.1-6-24.8-6   c-9.5,0-17.8,2.1-24.7,6.2c-7,4.2-12.3,9.9-16,17.3s-5.6,16-5.6,25.9c0,10.3,1.9,19.1,5.6,26.5c3.8,7.4,9.1,13,16,17   C1407.9,466.4,1416.1,468.4,1425.7,468.4z M1403,387c5.5-7.5,12.9-11.2,22.3-11.2c6.3,0,11.8,1.7,16.5,5.1   c4.6,3.4,8.3,8.3,10.9,14.6c2.6,6.3,3.9,13.8,3.9,22.5c0,14.6-2.5,25.7-7.6,33.1c-5,7.5-12.8,11.2-23.1,11.2   c-10.5,0-18.3-4-23.4-11.9c-5.2-7.9-7.8-18.7-7.8-32.3C1394.7,404.9,1397.5,394.5,1403,387z"></path>		<path id="S_00000042722583303359562480000012045700106215375515_" class="st11" d="M1530.9,460.5c-2.6,1-5.7,1.5-9.4,1.5   c-4.9,0-9.1-0.7-12.5-2s-6.3-3.7-8.6-7.2s-4.4-8.6-6.1-15.3h-4.5l1.3,31.3h4.5c0.1-1.4,0.6-2.6,1-3.6c0.8-0.9,1.6-1.3,2.6-1.3   c1.1,0,2.6,0.4,4.4,1.1s4.3,1.5,7.4,2.2c3.2,0.7,7.3,1.1,12.3,1.1c5.6,0,10.7-1,15.1-3s7.9-4.9,10.5-8.8c2.5-3.9,3.8-8.6,3.8-14.2   c0-4.4-0.8-8.1-2.4-11.2s-3.7-5.8-6.4-8.1c-2.6-2.3-5.6-4.4-8.8-6.2c-3.2-1.8-6.4-3.7-9.6-5.5c-3.6-2.1-7-4.2-10.3-6.2   s-6-4.3-8-6.9s-3-5.6-3-9.2c0-4.5,1.4-7.9,4.1-10.2c2.8-2.3,6.6-3.4,11.5-3.4c7.3-0.1,12.7,1.8,16.1,5.7c3.4,3.8,6.1,9.8,8.1,17.8   h4.3l-1-29h-3.8c-0.4,1.6-1,2.7-1.7,3.3c-0.7,0.6-1.7,0.9-2.8,0.9s-2.4-0.4-3.8-1.2c-1.4-0.7-3.3-1.5-5.7-2.2   c-2.4-0.7-5.9-1.1-10.3-1.1c-5.1,0-9.6,1-13.8,2.8s-7.5,4.5-10,7.9s-3.8,7.7-3.8,12.8c0,5.1,1.1,9.3,3.4,12.8s5.2,6.5,8.8,9   s7.3,4.9,11.2,7.1c4,2.2,7.8,4.4,11.5,6.6s6.7,4.7,9.1,7.5s3.6,6.3,3.6,10.6c0,3.7-0.7,6.6-2.2,8.9   C1535.5,457.8,1533.5,459.5,1530.9,460.5z"></path>		<path id="S_00000134236200565550730720000010691037925000819845_" class="st11" d="M1609.7,460.5c-2.6,1-5.7,1.5-9.4,1.5   c-4.9,0-9.1-0.7-12.5-2s-6.3-3.7-8.6-7.2s-4.4-8.6-6.1-15.3h-4.5l1.3,31.3h4.5c0.1-1.4,0.5-2.6,1-3.6c0.8-0.9,1.6-1.3,2.6-1.3   c1.1,0,2.6,0.4,4.4,1.1s4.3,1.5,7.4,2.2c3.2,0.7,7.3,1.1,12.3,1.1c5.6,0,10.7-1,15.1-3s7.9-4.9,10.5-8.8c2.5-3.9,3.8-8.6,3.8-14.2   c0-4.4-0.8-8.1-2.4-11.2s-3.7-5.8-6.4-8.1c-2.6-2.3-5.6-4.4-8.8-6.2c-3.2-1.8-6.4-3.7-9.6-5.5c-3.6-2.1-7-4.2-10.3-6.2   s-6-4.3-8-6.9s-3-5.6-3-9.2c0-4.5,1.4-7.9,4.1-10.2c2.8-2.3,6.6-3.4,11.5-3.4c7.3-0.1,12.7,1.8,16.1,5.7c3.4,3.8,6.1,9.8,8.1,17.8   h4.3l-1-29h-3.8c-0.4,1.6-1,2.7-1.7,3.3c-0.7,0.6-1.7,0.9-2.8,0.9s-2.4-0.4-3.8-1.2c-1.4-0.7-3.3-1.5-5.7-2.2   c-2.4-0.7-5.9-1.1-10.3-1.1c-5.1,0-9.6,1-13.8,2.8s-7.5,4.5-10,7.9s-3.8,7.7-3.8,12.8c0,5.1,1.1,9.3,3.4,12.8s5.2,6.5,8.8,9   s7.3,4.9,11.2,7.1c4,2.2,7.8,4.4,11.5,6.6s6.7,4.7,9.1,7.5s3.6,6.3,3.6,10.6c0,3.7-0.7,6.6-2.2,8.9   C1614.3,457.8,1612.3,459.5,1609.7,460.5z"></path>	</g>	<g id="Tomczak_00000179620799941893214840000017289811137403453328_">		<path id="T_00000089552264038501330920000000858683434178368399_" class="st11" d="M419.4,377.9c5.4,0,9.4,0.5,12,1.6   c2.7,1.1,4.5,3,5.7,5.8c1.1,2.8,2.2,6.9,3.3,12.2h4.5l-1.2-26.1h-80.2l-1.6,26.1h4.5c1-5.3,2.1-9.4,3.3-12.2   c1.1-2.8,3-4.7,5.7-5.8c2.7-1.1,6.7-1.6,12-1.6h9.3v69.8c0,4.3-0.3,7.5-1,9.6s-2.1,3.5-4.1,4.1s-5,0.9-9.1,0.9v4.3h42h0.2v-4.4   c-4.2,0-7.3-0.3-9.3-0.9c-2.1-0.7-3.4-2-4.1-4.1c-0.7-2-1-5.2-1-9.6v-69.7L419.4,377.9L419.4,377.9z"></path>		<path id="O_00000070816774204379304460000001592694731420537018_" class="st11" d="M529.8,375.6c-6.9-4-15.1-6-24.8-6   c-9.5,0-17.8,2.1-24.7,6.2c-7,4.2-12.3,9.9-16,17.3s-5.6,16-5.6,25.9c0,10.3,1.9,19.1,5.6,26.5c3.8,7.4,9.1,13,16,17   c6.9,3.9,15.1,5.9,24.7,5.9c9.6,0,17.8-2.1,24.6-6.4c6.9-4.3,12.2-10.2,15.9-17.8c3.7-7.6,5.6-16.5,5.6-26.6   c0-9.6-1.8-18-5.5-25.2S536.7,379.6,529.8,375.6z M528.3,451.1c-5,7.5-12.8,11.2-23.1,11.2c-10.5,0-18.3-4-23.4-11.9   c-5.2-7.9-7.8-18.7-7.8-32.3c0-13.2,2.8-23.6,8.3-31.1s12.9-11.2,22.3-11.2c6.3,0,11.8,1.7,16.5,5.1c4.6,3.4,8.3,8.3,10.9,14.6   c2.6,6.3,3.9,13.8,3.9,22.5C535.9,432.6,533.4,443.7,528.3,451.1z"></path>		<path id="M_00000175316149723907966640000003096011407515818126_" class="st11" d="M589.6,387.1l34.2,79.6h3.5l33.8-79.8h0.6v62.6   c0,3.4-0.3,6.1-0.9,8c-0.6,1.8-1.8,3.1-3.6,3.8s-4.6,1-8.4,1v4.3h38.6v-4.3c-3.5,0-6.2-0.3-8-1c-1.9-0.6-3.1-1.9-3.8-3.8   c-0.7-1.8-1-4.5-1-8V389c0-3.6,0.3-6.3,1-8.2c0.7-1.9,2-3.2,3.8-3.9s4.4-1.1,7.8-1.1v-4.3h-27.5l-30.5,72.9h-0.6L598,371.5h-29.6   v4.3c3.8,0,6.7,0.4,8.6,1.1c1.8,0.7,3.1,2,3.8,3.9c0.7,1.8,1,4.6,1,8.3v56.4c0,4.9-0.3,8.6-1,11s-2,4-3.9,4.7s-4.8,1.1-8.8,1.1   v4.3h34.1l-0.1-4.3c-3.6,0-6.4-0.4-8.3-1.1c-1.8-0.7-3.1-2.3-3.8-4.7c-0.7-2.4-1-6.1-1-11v-58.4L589.6,387.1L589.6,387.1z"></path>		<path id="C_00000065761546086037726170000002899269733953587339_" class="st11" d="M754.4,375.9c7.4,0,13.6,2.1,18.6,6.4   s8.3,11.1,9.8,20.6h4.9v-33.2h-4.4c-0.8,1.5-1.6,2.7-2.2,3.7c-0.6,1-1.5,1.5-2.7,1.5s-2.7-0.4-4.5-1.3s-4.3-1.7-7.4-2.6   c-3.1-0.9-7.2-1.3-12.3-1.3c-9.2,0-17.4,1.9-24.6,5.8c-7.1,3.8-12.7,9.5-16.8,16.8s-6.1,16.3-6.1,26.8c0,9.3,1.7,17.8,5.1,25.2   c3.4,7.4,8.5,13.2,15.3,17.5s15.1,6.4,25.1,6.4c6.4,0,12-0.8,16.8-2.6c4.8-1.8,9-4.1,12.7-7.2s6.8-6.5,9.4-10.4l-3.5-3   c-4,4.5-8.6,7.9-13.6,10.4s-10.8,3.7-17.5,3.7c-6.8,0-12.8-1.4-18-4.3c-5.3-2.9-9.4-7.4-12.3-13.5c-2.9-6.1-4.4-13.9-4.4-23.6   c0-13,2.8-23.2,8.5-30.6C735.9,379.6,744,375.9,754.4,375.9z"></path>		<path id="Z_00000058555161270435401810000013891843851468058540_" class="st11" d="M806.4,462.4v4.2h73.9l4.4-26.8h-4.5   c-1.5,5.3-3.2,9.5-4.9,12.5c-1.8,3-4.2,5.1-7.2,6.3c-3,1.2-7.3,1.8-12.8,1.8H825v-0.9l58.7-84v-4.1h-70.9l-1.6,25.4h4.6   c0.9-5.4,2.3-9.4,4.1-12.1s4.3-4.5,7.4-5.4c3.1-0.9,7.2-1.4,12.1-1.4h26.2v1.1L806.4,462.4z"></path>		<path id="A_00000005968484249955283630000011203533615525351066_" class="st11" d="M997.6,462.2c-3.9,0-6.8-1-8.8-2.9   s-4.1-5.3-6.2-10l-34.4-78.7h-5.9l-30.7,72.8c-2.3,5.6-4.3,9.6-5.8,12.3c-1.6,2.7-3.2,4.4-4.8,5.3s-3.8,1.3-6.5,1.3v4.3h30.4l0,0   h0.1v-4.5c-3.4,0-5.9-0.3-7.4-0.9s-2.3-2-2.3-4c0-1.4,0.2-2.6,0.5-3.7s0.7-2.2,1.1-3.4l6.4-15.2h37.3l5.5,12.9   c1,2.1,1.7,3.9,2,5.3s0.5,2.6,0.5,3.7c0,1.6-0.5,2.8-1.6,3.6c-1.1,0.8-2.4,1.3-3.9,1.5c-1.6,0.2-3,0.3-4.5,0.3v4.3h39L997.6,462.2   L997.6,462.2z M942.4,388.4l16,40.7h-32.9l16.5-40.7H942.4z"></path>		<path id="K_00000057139293322165025270000011587568676503000475_" class="st11" d="M1105.3,462.5c-3.6,0-6.4-0.5-8.4-1.5   c-2.1-1-4.3-2.6-6.7-4.8l-41.6-40.9l31.5-29.4c2.6-2.4,4.8-4.3,6.6-5.7c1.8-1.4,3.6-2.4,5.5-3.1s4.2-1.1,6.9-1.2v-4.3h-35.5v4.3   h2.3c2.1,0,3.5,0.4,4.3,1.1s1.2,1.9,1.2,3.4c0,2.1-0.9,4.3-2.6,6.5c-1.8,2.2-4.3,4.9-7.7,8.1l-23.5,22.9h-0.7v-27.3   c0-3.8,0.3-6.7,0.7-8.9s1.7-3.7,3.7-4.6c2.1-0.9,5.4-1.3,9.9-1.3v-4.3h-41.8v4.3c4.6,0,7.9,0.4,9.9,1.3s3.2,2.4,3.7,4.6   s0.7,5.1,0.7,8.9v57.1c0,4.3-0.3,7.4-0.9,9.5c-0.5,2-1.8,3.4-3.8,4.1c-1.9,0.7-5.2,1-9.6,1v4.3h41.6v-4.1c-4.2,0-7.4-0.4-9.4-1.2   s-3.3-2.2-3.9-4.3c-0.6-2.1-0.9-5.1-0.9-9.2v-26.1h1.3l12.8,12.8c4.9,4.7,8.9,8.7,12,11.8c3.1,3.2,5.3,5.8,6.8,7.8   s2.2,3.9,2.2,5.5c0,1-0.4,1.8-1.3,2.2c-0.8,0.5-2.3,0.7-4.3,0.7h-2.9v4.3h41.9L1105.3,462.5L1105.3,462.5z"></path>					<rect id="_x2D__00000004534079977232632530000005197103094685597571_" x="1114.3" y="425.6" class="st11" width="32.6" height="9.4"></rect>	</g></g></svg>