<svg xmlns="http://www.w3.org/2000/svg" xmlns:xlink="http://www.w3.org/1999/xlink" width="302" height="301" xml:space="preserve" overflow="hidden"><g transform="translate(-29 -314)"><path d="M261.494 192.828C259.926 183.422 254.909 174.956 247.384 168.999 237.978 161.788 227.945 155.83 216.971 151.754 220.42 142.661 216.344 132.315 207.565 127.925 230.453 96.5708 223.555 52.3615 192.201 29.4729 160.847 6.58437 116.638 13.4823 93.749 44.8365 75.5635 69.6063 75.5635 103.155 93.749 127.925 84.9698 132.628 81.2073 142.975 84.6562 152.068 73.9958 156.771 63.649 162.415 54.2427 168.999 46.4042 174.956 41.3875 183.422 39.8198 193.142L34.176 261.807 39.1927 263.375C40.7604 263.689 83.0885 275.917 150.5 275.917 217.911 275.917 260.24 263.689 262.121 263.061L267.138 261.494 261.807 193.142 261.494 192.828ZM99.0792 151.127C95.6302 149.246 94.6896 144.856 96.5708 141.407 97.825 139.213 100.02 137.958 102.528 137.958 129.493 163.042 171.194 163.042 198.158 137.958 198.785 137.958 199.413 137.958 199.726 138.272 203.489 139.213 205.683 142.975 204.743 146.738 204.429 148.619 203.175 150.186 201.607 151.127 189.379 158.652 170.567 163.042 150.5 163.042 130.433 163.042 111.934 158.652 99.0792 151.127ZM188.125 103.469C188.125 107.858 187.498 111.934 185.93 116.01L172.134 116.01C170.88 114.129 168.999 112.875 166.804 112.875L160.533 112.875C157.084 112.875 154.263 115.697 154.263 119.146 154.263 122.595 157.084 125.417 160.533 125.417L166.804 125.417C168.999 125.417 171.194 124.162 172.134 122.281L183.108 122.281C172.761 140.153 149.873 146.424 131.688 136.077 120.086 129.493 112.875 116.951 112.875 103.469L112.875 67.725C124.476 62.0812 137.645 59.2594 150.5 59.5729 163.355 59.2594 176.524 62.0812 188.125 67.725L188.125 103.469ZM150.5 28.2188C173.389 28.2188 194.082 41.701 203.489 62.3948 190.947 52.9885 172.134 47.0312 150.5 47.0312 128.866 47.0312 110.053 52.9885 97.5115 62.3948 106.918 41.701 127.611 28.2188 150.5 28.2188L150.5 28.2188ZM218.852 258.672 216.344 237.665C216.03 234.216 212.895 231.707 209.446 232.334 205.997 232.648 203.489 235.783 204.116 239.232L206.624 260.553C187.811 262.434 169.312 263.375 150.5 263.375 131.688 263.375 113.189 262.434 94.376 260.24L96.8844 238.919C97.1979 235.47 95.0031 232.334 91.5542 232.021 88.1052 231.707 84.9698 233.902 84.6562 237.351L84.6562 237.351 82.1479 258.672C65.5302 256.477 53.6156 253.655 47.6583 252.401L52.3615 194.709C52.9885 190.947 54.2427 187.498 56.4375 184.676L72.4281 198.472 84.6562 184.049 71.4875 172.761C78.3854 168.685 85.5969 164.923 93.1219 162.101 107.545 170.567 128.552 175.583 150.5 175.583 172.761 175.583 193.769 170.567 208.505 161.788 216.03 164.609 223.242 168.058 230.14 172.448L216.344 184.049 228.572 198.472 244.562 184.676C246.757 187.811 248.011 191.26 248.639 194.709L253.342 252.401C247.384 253.969 235.47 256.477 218.852 258.672Z" stroke="#FFC000" stroke-width="3.13542" transform="matrix(1.00332 0 0 1 29 314)"></path><path d="M175.583 191.26 125.417 191.26C118.519 191.26 112.875 196.904 112.875 203.802L112.875 228.885C112.875 235.783 118.519 241.427 125.417 241.427L175.583 241.427C182.481 241.427 188.125 235.783 188.125 228.885L188.125 203.802C188.125 196.904 182.481 191.26 175.583 191.26ZM125.417 228.885 125.417 203.802 175.583 203.802 175.583 228.885 125.417 228.885Z" stroke="#FFC000" stroke-width="3.13542" transform="matrix(1.00332 0 0 1 29 314)"></path><path d="M22.575 112.875C20.6938 119.773 15.9906 125.417 9.40625 128.552 15.6771 131.688 20.6938 137.331 22.575 144.229 24.4563 137.331 29.1594 131.688 35.7438 128.552 29.1594 125.417 24.4563 119.773 22.575 112.875Z" stroke="#FFC000" stroke-width="3.13542" transform="matrix(1.00332 0 0 1 29 314)"></path><path d="M55.8104 28.2188C53.9292 35.1167 49.226 40.7604 42.6417 43.8958 48.9125 47.0312 53.9292 52.675 55.8104 59.5729 57.6917 52.675 62.3948 47.0312 68.9792 43.8958 62.7083 40.7604 57.6917 35.1167 55.8104 28.2188Z" stroke="#FFC000" stroke-width="3.13542" transform="matrix(1.00332 0 0 1 29 314)"></path><path d="M262.748 97.5115C260.867 104.409 256.164 110.053 249.579 113.189 255.85 116.324 260.867 121.968 262.748 128.866 264.629 121.968 269.332 116.324 275.917 113.189 269.646 110.053 264.629 104.409 262.748 97.5115Z" stroke="#FFC000" stroke-width="3.13542" transform="matrix(1.00332 0 0 1 29 314)"></path></g></svg>